G75*
%MOIN*%
%OFA0B0*%
%FSLAX25Y25*%
%IPPOS*%
%LPD*%
%AMOC8*
5,1,8,0,0,1.08239X$1,22.5*
%
%ADD10C,0.06000*%
%ADD11R,0.08200X0.08200*%
%ADD12C,0.08200*%
%ADD13C,0.20800*%
D10*
X0111032Y0175000D02*
X0116232Y0175000D01*
X0116232Y0185000D02*
X0111032Y0185000D01*
X0111032Y0195000D02*
X0116232Y0195000D01*
X0116232Y0205000D02*
X0111032Y0205000D01*
X0111032Y0215000D02*
X0116232Y0215000D01*
X0116232Y0225000D02*
X0111032Y0225000D01*
X0111032Y0235000D02*
X0116232Y0235000D01*
X0116232Y0245000D02*
X0111032Y0245000D01*
X0111032Y0255000D02*
X0116232Y0255000D01*
X0116232Y0265000D02*
X0111032Y0265000D01*
X0141032Y0265000D02*
X0146232Y0265000D01*
X0146232Y0255000D02*
X0141032Y0255000D01*
X0141032Y0245000D02*
X0146232Y0245000D01*
X0146232Y0235000D02*
X0141032Y0235000D01*
X0141032Y0225000D02*
X0146232Y0225000D01*
X0146232Y0215000D02*
X0141032Y0215000D01*
X0141032Y0205000D02*
X0146232Y0205000D01*
X0146232Y0195000D02*
X0141032Y0195000D01*
X0141032Y0185000D02*
X0146232Y0185000D01*
X0146232Y0175000D02*
X0141032Y0175000D01*
D11*
X0073632Y0130000D03*
X0069223Y0188189D03*
D12*
X0058042Y0193661D03*
X0069223Y0199094D03*
X0058042Y0204567D03*
X0069223Y0210000D03*
X0058042Y0215433D03*
X0069223Y0220906D03*
X0058042Y0226339D03*
X0069223Y0231811D03*
X0083632Y0130000D03*
X0093632Y0130000D03*
X0103632Y0130000D03*
D13*
X0063632Y0160787D03*
X0063632Y0259213D03*
M02*
