%
M48
M72
T01C0.03200
T02C0.04000
T03C0.13000
%
T01
X113632Y175000
X113632Y185000
X113632Y195000
X113632Y205000
X113632Y215000
X113632Y225000
X113632Y235000
X113632Y245000
X113632Y255000
X113632Y265000
X143632Y265000
X143632Y255000
X143632Y245000
X143632Y235000
X143632Y225000
X143632Y215000
X143632Y205000
X143632Y195000
X143632Y185000
X143632Y175000
T02
X73632Y130000
X83632Y130000
X93632Y130000
X103632Y130000
X69223Y188189
X58042Y193661
X69223Y199094
X58042Y204567
X69223Y210000
X58042Y215433
X69223Y220906
X58042Y226339
X69223Y231811
T03
X63632Y259213
X63632Y160787
M30
