G75*
%MOIN*%
%OFA0B0*%
%FSLAX25Y25*%
%IPPOS*%
%LPD*%
%AMOC8*
5,1,8,0,0,1.08239X$1,22.5*
%
%ADD10C,0.07677*%
%ADD11OC8,0.05600*%
%ADD12C,0.06600*%
%ADD13C,0.05200*%
%ADD14R,0.06000X0.06000*%
%ADD15OC8,0.06000*%
%ADD16R,0.07400X0.07400*%
%ADD17C,0.07400*%
%ADD18C,0.05200*%
%ADD19OC8,0.05200*%
%ADD20C,0.07480*%
%ADD21R,0.08000X0.08000*%
%ADD22C,0.08000*%
%ADD23C,0.20000*%
%ADD24C,0.06000*%
%ADD25OC8,0.06600*%
%ADD26C,0.03200*%
D10*
X0015011Y0082039D03*
X0093752Y0082039D03*
D11*
X0205661Y0120011D03*
X0205661Y0130011D03*
X0268161Y0130011D03*
X0268161Y0120011D03*
X0245100Y0056350D03*
X0225661Y0056261D03*
X0225661Y0046261D03*
X0245100Y0046350D03*
X0324539Y0018939D03*
X0324539Y0008939D03*
D12*
X0343761Y0009539D03*
X0368939Y0009411D03*
X0416911Y0016261D03*
X0435789Y0012689D03*
X0368939Y0049411D03*
X0343761Y0049539D03*
X0272600Y0056350D03*
X0201350Y0056350D03*
X0201350Y0016350D03*
X0225100Y0016350D03*
X0416911Y0056261D03*
X0435789Y0052689D03*
X0280661Y0153761D03*
X0270661Y0153761D03*
X0260661Y0153761D03*
X0250661Y0153761D03*
X0240661Y0153761D03*
X0230661Y0153761D03*
X0220661Y0153761D03*
X0210661Y0153761D03*
X0200661Y0153761D03*
X0190661Y0153761D03*
X0180661Y0153761D03*
X0170661Y0153761D03*
X0160661Y0153761D03*
X0150661Y0153761D03*
X0098761Y0134539D03*
X0098761Y0174539D03*
X0083161Y0193761D03*
X0043161Y0193761D03*
X0150661Y0183761D03*
X0160661Y0183761D03*
X0170661Y0183761D03*
X0180661Y0183761D03*
X0190661Y0183761D03*
X0200661Y0183761D03*
X0210661Y0183761D03*
X0220661Y0183761D03*
X0230661Y0183761D03*
X0240661Y0183761D03*
X0250661Y0183761D03*
X0260661Y0183761D03*
X0270661Y0183761D03*
X0280661Y0183761D03*
D13*
X0066893Y0174381D02*
X0061693Y0174381D01*
X0061693Y0164381D02*
X0066893Y0164381D01*
X0066893Y0154381D02*
X0061693Y0154381D01*
X0061693Y0144381D02*
X0066893Y0144381D01*
X0036893Y0144381D02*
X0031693Y0144381D01*
X0031693Y0154381D02*
X0036893Y0154381D01*
X0036893Y0164381D02*
X0031693Y0164381D01*
X0031693Y0174381D02*
X0036893Y0174381D01*
D14*
X0305661Y0178761D03*
D15*
X0315661Y0178761D03*
X0325661Y0178761D03*
X0325661Y0188761D03*
X0315661Y0188761D03*
X0305661Y0188761D03*
D16*
X0403161Y0191261D03*
X0440317Y0166507D03*
D17*
X0451498Y0161035D03*
X0440317Y0155602D03*
X0451498Y0150130D03*
X0440317Y0144696D03*
X0451498Y0139263D03*
X0440317Y0133791D03*
X0451498Y0128358D03*
X0440317Y0122885D03*
X0393161Y0191261D03*
X0383161Y0191261D03*
X0149711Y0121411D03*
X0124111Y0121411D03*
X0124111Y0103611D03*
X0149711Y0103611D03*
D18*
X0227411Y0130011D03*
X0246411Y0130011D03*
X0021744Y0166094D03*
X0011744Y0166094D03*
D19*
X0016980Y0153466D03*
X0075464Y0164480D03*
X0075464Y0124480D03*
X0016980Y0113466D03*
X0160789Y0088939D03*
X0160789Y0048939D03*
D20*
X0350198Y0076202D03*
X0350198Y0086202D03*
X0370198Y0081202D03*
X0370198Y0071202D03*
X0370198Y0091202D03*
X0370198Y0101202D03*
X0350198Y0096202D03*
X0350198Y0106202D03*
X0350198Y0116202D03*
X0370198Y0111202D03*
X0370198Y0121202D03*
X0350198Y0126202D03*
X0370198Y0131202D03*
X0370198Y0141202D03*
X0350198Y0136202D03*
D21*
X0387689Y0020661D03*
X0308289Y0016439D03*
D22*
X0294509Y0016439D03*
X0401468Y0020661D03*
D23*
X0445907Y0095484D03*
X0445907Y0193909D03*
D24*
X0163100Y0036350D02*
X0157100Y0036350D01*
X0157100Y0026350D02*
X0163100Y0026350D01*
X0163100Y0016350D02*
X0157100Y0016350D01*
D25*
X0225100Y0026350D03*
X0272600Y0046350D03*
D26*
X0009320Y0078432D02*
X0009320Y0009379D01*
X0318939Y0009379D01*
X0318939Y0011258D01*
X0321619Y0013939D01*
X0318939Y0016619D01*
X0318939Y0021258D01*
X0322219Y0024539D01*
X0326859Y0024539D01*
X0328059Y0023339D01*
X0335237Y0023339D01*
X0336854Y0022669D01*
X0343761Y0015762D01*
X0354450Y0026450D01*
X0354450Y0052225D01*
X0355120Y0053842D01*
X0356358Y0055080D01*
X0356358Y0055080D01*
X0365798Y0064521D01*
X0365798Y0066353D01*
X0364654Y0067498D01*
X0363658Y0069901D01*
X0363658Y0072503D01*
X0364654Y0074907D01*
X0365949Y0076202D01*
X0364654Y0077498D01*
X0363658Y0079901D01*
X0363658Y0082503D01*
X0364654Y0084907D01*
X0365949Y0086202D01*
X0364654Y0087498D01*
X0363658Y0089901D01*
X0363658Y0092503D01*
X0364654Y0094907D01*
X0365949Y0096202D01*
X0365349Y0096802D01*
X0356739Y0096802D01*
X0356739Y0094901D01*
X0355743Y0092498D01*
X0354448Y0091202D01*
X0355743Y0089907D01*
X0356739Y0087503D01*
X0356739Y0084901D01*
X0355743Y0082498D01*
X0354448Y0081202D01*
X0355743Y0079907D01*
X0356739Y0077503D01*
X0356739Y0074901D01*
X0355743Y0072498D01*
X0353903Y0070658D01*
X0351499Y0069662D01*
X0348898Y0069662D01*
X0346494Y0070658D01*
X0344654Y0072498D01*
X0343658Y0074901D01*
X0343658Y0077503D01*
X0344654Y0079907D01*
X0345949Y0081202D01*
X0344654Y0082498D01*
X0343658Y0084901D01*
X0343658Y0087503D01*
X0344654Y0089907D01*
X0345949Y0091202D01*
X0345349Y0091802D01*
X0317345Y0091802D01*
X0315728Y0092472D01*
X0314490Y0093710D01*
X0260538Y0147661D01*
X0259448Y0147661D01*
X0257206Y0148590D01*
X0255661Y0150135D01*
X0254116Y0148590D01*
X0251874Y0147661D01*
X0249448Y0147661D01*
X0247206Y0148590D01*
X0245661Y0150135D01*
X0245061Y0149535D01*
X0245061Y0137584D01*
X0247234Y0135411D01*
X0247485Y0135411D01*
X0249470Y0134589D01*
X0250989Y0133070D01*
X0251811Y0131086D01*
X0251811Y0128937D01*
X0250989Y0126953D01*
X0249470Y0125434D01*
X0247485Y0124611D01*
X0245337Y0124611D01*
X0243352Y0125434D01*
X0241833Y0126953D01*
X0241011Y0128937D01*
X0241011Y0129189D01*
X0238169Y0132031D01*
X0236931Y0133269D01*
X0236261Y0134886D01*
X0236261Y0149535D01*
X0235661Y0150135D01*
X0235061Y0149535D01*
X0235061Y0132386D01*
X0234391Y0130769D01*
X0233153Y0129531D01*
X0232811Y0129189D01*
X0232811Y0128937D01*
X0231989Y0126953D01*
X0230470Y0125434D01*
X0228485Y0124611D01*
X0226337Y0124611D01*
X0224352Y0125434D01*
X0222833Y0126953D01*
X0222011Y0128937D01*
X0222011Y0130139D01*
X0216284Y0124411D01*
X0264641Y0124411D01*
X0265241Y0125011D01*
X0262561Y0127692D01*
X0262561Y0132331D01*
X0265841Y0135611D01*
X0270481Y0135611D01*
X0273761Y0132331D01*
X0273761Y0127692D01*
X0271081Y0125011D01*
X0273761Y0122331D01*
X0273761Y0117692D01*
X0270481Y0114411D01*
X0265841Y0114411D01*
X0264641Y0115611D01*
X0209181Y0115611D01*
X0207981Y0114411D01*
X0203341Y0114411D01*
X0200061Y0117692D01*
X0200061Y0122331D01*
X0202741Y0125011D01*
X0200061Y0127692D01*
X0200061Y0132331D01*
X0203341Y0135611D01*
X0207981Y0135611D01*
X0211261Y0132331D01*
X0211261Y0131834D01*
X0216261Y0136834D01*
X0216261Y0149535D01*
X0215661Y0150135D01*
X0214116Y0148590D01*
X0211874Y0147661D01*
X0210784Y0147661D01*
X0198250Y0135128D01*
X0198250Y0073173D01*
X0203842Y0067580D01*
X0205080Y0066342D01*
X0205750Y0064725D01*
X0205750Y0060577D01*
X0206521Y0059805D01*
X0207450Y0057563D01*
X0207450Y0055137D01*
X0206521Y0052895D01*
X0204805Y0051179D01*
X0202563Y0050250D01*
X0200137Y0050250D01*
X0197895Y0051179D01*
X0196179Y0052895D01*
X0195250Y0055137D01*
X0195250Y0057563D01*
X0196179Y0059805D01*
X0196950Y0060577D01*
X0196950Y0062027D01*
X0190120Y0068858D01*
X0189450Y0070475D01*
X0189450Y0137826D01*
X0190120Y0139443D01*
X0191358Y0140681D01*
X0198663Y0147986D01*
X0197206Y0148590D01*
X0195661Y0150135D01*
X0194116Y0148590D01*
X0191874Y0147661D01*
X0189448Y0147661D01*
X0187206Y0148590D01*
X0185661Y0150135D01*
X0184116Y0148590D01*
X0181874Y0147661D01*
X0179448Y0147661D01*
X0177206Y0148590D01*
X0175661Y0150135D01*
X0174116Y0148590D01*
X0171874Y0147661D01*
X0169448Y0147661D01*
X0167206Y0148590D01*
X0165661Y0150135D01*
X0164116Y0148590D01*
X0161874Y0147661D01*
X0159448Y0147661D01*
X0157206Y0148590D01*
X0155661Y0150135D01*
X0154116Y0148590D01*
X0154111Y0148588D01*
X0154111Y0126204D01*
X0155221Y0125093D01*
X0156211Y0122704D01*
X0156211Y0121134D01*
X0164519Y0112826D01*
X0165189Y0111209D01*
X0165189Y0092175D01*
X0166189Y0091175D01*
X0166189Y0086702D01*
X0163026Y0083539D01*
X0158552Y0083539D01*
X0155389Y0086702D01*
X0155389Y0091175D01*
X0156389Y0092175D01*
X0156389Y0108511D01*
X0149988Y0114911D01*
X0148418Y0114911D01*
X0146029Y0115901D01*
X0144201Y0117729D01*
X0143211Y0120118D01*
X0143211Y0122704D01*
X0144201Y0125093D01*
X0145311Y0126204D01*
X0145311Y0150737D01*
X0144561Y0152548D01*
X0144561Y0154975D01*
X0145172Y0156449D01*
X0131330Y0142608D01*
X0130092Y0141370D01*
X0128475Y0140700D01*
X0070848Y0140700D01*
X0069952Y0139804D01*
X0067967Y0138981D01*
X0060619Y0138981D01*
X0058634Y0139804D01*
X0057115Y0141323D01*
X0056293Y0143307D01*
X0056293Y0145456D01*
X0057115Y0147440D01*
X0058634Y0148959D01*
X0059653Y0149381D01*
X0058634Y0149804D01*
X0057115Y0151323D01*
X0056293Y0153307D01*
X0056293Y0155456D01*
X0057115Y0157440D01*
X0058634Y0158959D01*
X0059653Y0159381D01*
X0058634Y0159804D01*
X0057115Y0161323D01*
X0056293Y0163307D01*
X0056293Y0165456D01*
X0057115Y0167440D01*
X0058634Y0168959D01*
X0059653Y0169381D01*
X0058634Y0169804D01*
X0057330Y0171108D01*
X0055750Y0169527D01*
X0055750Y0152975D01*
X0055080Y0151358D01*
X0045080Y0141358D01*
X0044310Y0140587D01*
X0079176Y0105720D01*
X0112255Y0105720D01*
X0113872Y0105051D01*
X0118323Y0100599D01*
X0117611Y0102318D01*
X0117611Y0104904D01*
X0118601Y0107293D01*
X0120429Y0109122D01*
X0122818Y0110111D01*
X0125404Y0110111D01*
X0127793Y0109122D01*
X0129621Y0107293D01*
X0130611Y0104904D01*
X0130611Y0102318D01*
X0129621Y0099929D01*
X0127793Y0098101D01*
X0125404Y0097111D01*
X0122818Y0097111D01*
X0121099Y0097823D01*
X0123173Y0095750D01*
X0135627Y0095750D01*
X0143211Y0103334D01*
X0143211Y0104904D01*
X0144201Y0107293D01*
X0146029Y0109122D01*
X0148418Y0110111D01*
X0151004Y0110111D01*
X0153393Y0109122D01*
X0155221Y0107293D01*
X0156211Y0104904D01*
X0156211Y0102318D01*
X0155221Y0099929D01*
X0154111Y0098819D01*
X0154111Y0055086D01*
X0153441Y0053469D01*
X0147000Y0047027D01*
X0147000Y0034423D01*
X0150673Y0030750D01*
X0153298Y0030750D01*
X0153815Y0031267D01*
X0154015Y0031350D01*
X0153815Y0031433D01*
X0152183Y0033065D01*
X0151300Y0035196D01*
X0151300Y0037504D01*
X0152183Y0039635D01*
X0153815Y0041267D01*
X0155946Y0042150D01*
X0164254Y0042150D01*
X0166385Y0041267D01*
X0168017Y0039635D01*
X0168900Y0037504D01*
X0168900Y0035196D01*
X0168017Y0033065D01*
X0166385Y0031433D01*
X0166185Y0031350D01*
X0166385Y0031267D01*
X0168017Y0029635D01*
X0168900Y0027504D01*
X0168900Y0025196D01*
X0168017Y0023065D01*
X0166385Y0021433D01*
X0166185Y0021350D01*
X0166385Y0021267D01*
X0168017Y0019635D01*
X0168900Y0017504D01*
X0168900Y0015196D01*
X0168017Y0013065D01*
X0166385Y0011433D01*
X0164254Y0010550D01*
X0155946Y0010550D01*
X0153815Y0011433D01*
X0152183Y0013065D01*
X0151300Y0015196D01*
X0151300Y0017504D01*
X0152183Y0019635D01*
X0153815Y0021267D01*
X0154015Y0021350D01*
X0153815Y0021433D01*
X0153298Y0021950D01*
X0147975Y0021950D01*
X0146358Y0022620D01*
X0145120Y0023858D01*
X0145120Y0023858D01*
X0138870Y0030108D01*
X0138200Y0031725D01*
X0138200Y0049725D01*
X0138870Y0051342D01*
X0140108Y0052580D01*
X0145311Y0057784D01*
X0145311Y0092989D01*
X0139942Y0087620D01*
X0138325Y0086950D01*
X0120475Y0086950D01*
X0118858Y0087620D01*
X0109557Y0096920D01*
X0076479Y0096920D01*
X0074862Y0097590D01*
X0038693Y0133759D01*
X0038693Y0100445D01*
X0038023Y0098828D01*
X0021650Y0082455D01*
X0021650Y0080718D01*
X0020639Y0078279D01*
X0018772Y0076411D01*
X0016332Y0075400D01*
X0013691Y0075400D01*
X0011251Y0076411D01*
X0009384Y0078279D01*
X0009320Y0078432D01*
X0009320Y0077084D02*
X0010578Y0077084D01*
X0019445Y0077084D02*
X0089318Y0077084D01*
X0089991Y0076411D02*
X0092431Y0075400D01*
X0095072Y0075400D01*
X0097512Y0076411D01*
X0099379Y0078279D01*
X0100390Y0080718D01*
X0100390Y0083359D01*
X0099379Y0085799D01*
X0097512Y0087667D01*
X0095072Y0088678D01*
X0092431Y0088678D01*
X0089991Y0087667D01*
X0088124Y0085799D01*
X0087113Y0083359D01*
X0087113Y0080718D01*
X0088124Y0078279D01*
X0089991Y0076411D01*
X0087293Y0080283D02*
X0021470Y0080283D01*
X0022677Y0083482D02*
X0087164Y0083482D01*
X0089004Y0086680D02*
X0025875Y0086680D01*
X0029074Y0089879D02*
X0116599Y0089879D01*
X0121350Y0091350D02*
X0137450Y0091350D01*
X0149711Y0103611D01*
X0149711Y0055961D01*
X0142600Y0048850D01*
X0142600Y0032600D01*
X0148850Y0026350D01*
X0160100Y0026350D01*
X0167662Y0022710D02*
X0220113Y0022710D01*
X0219000Y0023823D02*
X0221473Y0021350D01*
X0219929Y0019805D01*
X0219000Y0017563D01*
X0219000Y0015137D01*
X0219929Y0012895D01*
X0221645Y0011179D01*
X0223887Y0010250D01*
X0226313Y0010250D01*
X0228555Y0011179D01*
X0230271Y0012895D01*
X0231200Y0015137D01*
X0231200Y0017563D01*
X0230271Y0019805D01*
X0228727Y0021350D01*
X0231200Y0023823D01*
X0231200Y0028877D01*
X0227627Y0032450D01*
X0222573Y0032450D01*
X0219000Y0028877D01*
X0219000Y0023823D01*
X0219000Y0025908D02*
X0168900Y0025908D01*
X0168236Y0029107D02*
X0219230Y0029107D01*
X0222429Y0032305D02*
X0167258Y0032305D01*
X0168900Y0035504D02*
X0354450Y0035504D01*
X0354450Y0032305D02*
X0227771Y0032305D01*
X0230970Y0029107D02*
X0354450Y0029107D01*
X0353908Y0025908D02*
X0231200Y0025908D01*
X0230086Y0022710D02*
X0291880Y0022710D01*
X0290658Y0022203D02*
X0288745Y0020290D01*
X0287709Y0017791D01*
X0287709Y0015086D01*
X0288745Y0012587D01*
X0290658Y0010674D01*
X0293157Y0009639D01*
X0295862Y0009639D01*
X0298361Y0010674D01*
X0300274Y0012587D01*
X0301309Y0015086D01*
X0301309Y0017791D01*
X0300274Y0020290D01*
X0298361Y0022203D01*
X0295862Y0023239D01*
X0293157Y0023239D01*
X0290658Y0022203D01*
X0288422Y0019511D02*
X0230393Y0019511D01*
X0231200Y0016313D02*
X0287709Y0016313D01*
X0288526Y0013114D02*
X0230362Y0013114D01*
X0219838Y0013114D02*
X0206612Y0013114D01*
X0206521Y0012895D02*
X0207450Y0015137D01*
X0207450Y0017563D01*
X0206521Y0019805D01*
X0204805Y0021521D01*
X0202563Y0022450D01*
X0200137Y0022450D01*
X0197895Y0021521D01*
X0196179Y0019805D01*
X0195250Y0017563D01*
X0195250Y0015137D01*
X0196179Y0012895D01*
X0197895Y0011179D01*
X0200137Y0010250D01*
X0202563Y0010250D01*
X0204805Y0011179D01*
X0206521Y0012895D01*
X0207450Y0016313D02*
X0219000Y0016313D01*
X0219807Y0019511D02*
X0206643Y0019511D01*
X0196057Y0019511D02*
X0168068Y0019511D01*
X0168900Y0016313D02*
X0195250Y0016313D01*
X0196088Y0013114D02*
X0168038Y0013114D01*
X0152162Y0013114D02*
X0009320Y0013114D01*
X0009320Y0016313D02*
X0094285Y0016313D01*
X0093670Y0016668D02*
X0096430Y0015075D01*
X0099507Y0014250D01*
X0102693Y0014250D01*
X0105770Y0015075D01*
X0108530Y0016668D01*
X0110782Y0018920D01*
X0112375Y0021680D01*
X0113200Y0024757D01*
X0113200Y0027943D01*
X0112375Y0031020D01*
X0110782Y0033780D01*
X0108530Y0036032D01*
X0105770Y0037625D01*
X0102693Y0038450D01*
X0099507Y0038450D01*
X0096430Y0037625D01*
X0093670Y0036032D01*
X0091418Y0033780D01*
X0089825Y0031020D01*
X0089000Y0027943D01*
X0089000Y0024757D01*
X0089825Y0021680D01*
X0091418Y0018920D01*
X0093670Y0016668D01*
X0091076Y0019511D02*
X0009320Y0019511D01*
X0009320Y0022710D02*
X0089549Y0022710D01*
X0089000Y0025908D02*
X0009320Y0025908D01*
X0009320Y0029107D02*
X0089312Y0029107D01*
X0090566Y0032305D02*
X0009320Y0032305D01*
X0009320Y0035504D02*
X0093142Y0035504D01*
X0109058Y0035504D02*
X0138200Y0035504D01*
X0138200Y0032305D02*
X0111634Y0032305D01*
X0112888Y0029107D02*
X0139871Y0029107D01*
X0143069Y0025908D02*
X0113200Y0025908D01*
X0112651Y0022710D02*
X0146268Y0022710D01*
X0152132Y0019511D02*
X0111124Y0019511D01*
X0107915Y0016313D02*
X0151300Y0016313D01*
X0152942Y0032305D02*
X0149117Y0032305D01*
X0147000Y0035504D02*
X0151300Y0035504D01*
X0151797Y0038702D02*
X0147000Y0038702D01*
X0147000Y0041901D02*
X0155345Y0041901D01*
X0158552Y0043539D02*
X0163026Y0043539D01*
X0166189Y0046702D01*
X0166189Y0051175D01*
X0163026Y0054339D01*
X0158552Y0054339D01*
X0155389Y0051175D01*
X0155389Y0046702D01*
X0158552Y0043539D01*
X0156991Y0045099D02*
X0147000Y0045099D01*
X0148270Y0048298D02*
X0155389Y0048298D01*
X0155710Y0051496D02*
X0151469Y0051496D01*
X0153949Y0054695D02*
X0195433Y0054695D01*
X0197577Y0051496D02*
X0165868Y0051496D01*
X0166189Y0048298D02*
X0220061Y0048298D01*
X0220061Y0048581D02*
X0220061Y0043942D01*
X0223341Y0040661D01*
X0227981Y0040661D01*
X0231261Y0043942D01*
X0231261Y0048581D01*
X0228581Y0051261D01*
X0231261Y0053942D01*
X0231261Y0058581D01*
X0227981Y0061861D01*
X0223341Y0061861D01*
X0220061Y0058581D01*
X0220061Y0053942D01*
X0222741Y0051261D01*
X0220061Y0048581D01*
X0220061Y0045099D02*
X0164587Y0045099D01*
X0164855Y0041901D02*
X0222102Y0041901D01*
X0229220Y0041901D02*
X0241630Y0041901D01*
X0242780Y0040750D02*
X0247420Y0040750D01*
X0250700Y0044030D01*
X0250700Y0048670D01*
X0248020Y0051350D01*
X0250700Y0054030D01*
X0250700Y0058670D01*
X0247420Y0061950D01*
X0242780Y0061950D01*
X0239500Y0058670D01*
X0239500Y0054030D01*
X0242180Y0051350D01*
X0239500Y0048670D01*
X0239500Y0044030D01*
X0242780Y0040750D01*
X0248570Y0041901D02*
X0268422Y0041901D01*
X0270073Y0040250D02*
X0266500Y0043823D01*
X0266500Y0048877D01*
X0268973Y0051350D01*
X0267429Y0052895D01*
X0266500Y0055137D01*
X0266500Y0057563D01*
X0267429Y0059805D01*
X0269145Y0061521D01*
X0271387Y0062450D01*
X0273813Y0062450D01*
X0276055Y0061521D01*
X0277771Y0059805D01*
X0278700Y0057563D01*
X0278700Y0055137D01*
X0277771Y0052895D01*
X0276227Y0051350D01*
X0278700Y0048877D01*
X0278700Y0043823D01*
X0275127Y0040250D01*
X0270073Y0040250D01*
X0276778Y0041901D02*
X0354450Y0041901D01*
X0354450Y0038702D02*
X0168403Y0038702D01*
X0138200Y0038702D02*
X0009320Y0038702D01*
X0009320Y0041901D02*
X0138200Y0041901D01*
X0138200Y0045099D02*
X0009320Y0045099D01*
X0009320Y0048298D02*
X0138200Y0048298D01*
X0139024Y0051496D02*
X0009320Y0051496D01*
X0009320Y0054695D02*
X0142222Y0054695D01*
X0145311Y0057893D02*
X0009320Y0057893D01*
X0009320Y0061092D02*
X0145311Y0061092D01*
X0145311Y0064290D02*
X0009320Y0064290D01*
X0009320Y0067489D02*
X0145311Y0067489D01*
X0145311Y0070687D02*
X0009320Y0070687D01*
X0009320Y0073886D02*
X0145311Y0073886D01*
X0145311Y0077084D02*
X0098185Y0077084D01*
X0100210Y0080283D02*
X0145311Y0080283D01*
X0145311Y0083482D02*
X0100340Y0083482D01*
X0098499Y0086680D02*
X0145311Y0086680D01*
X0145311Y0089879D02*
X0142201Y0089879D01*
X0136153Y0096276D02*
X0122647Y0096276D01*
X0121350Y0091350D02*
X0111380Y0101320D01*
X0077354Y0101320D01*
X0034293Y0144381D01*
X0034824Y0143850D01*
X0041350Y0143850D01*
X0051350Y0153850D01*
X0051350Y0171350D01*
X0063850Y0183850D01*
X0086350Y0183850D01*
X0097600Y0195100D01*
X0206350Y0195100D01*
X0210661Y0190789D01*
X0210661Y0183761D01*
X0205661Y0180135D02*
X0207206Y0178590D01*
X0209448Y0177661D01*
X0211874Y0177661D01*
X0214116Y0178590D01*
X0215661Y0180135D01*
X0217206Y0178590D01*
X0219448Y0177661D01*
X0221874Y0177661D01*
X0224116Y0178590D01*
X0225661Y0180135D01*
X0227206Y0178590D01*
X0229448Y0177661D01*
X0231874Y0177661D01*
X0234116Y0178590D01*
X0235661Y0180135D01*
X0237206Y0178590D01*
X0239448Y0177661D01*
X0241874Y0177661D01*
X0244116Y0178590D01*
X0245661Y0180135D01*
X0247206Y0178590D01*
X0249448Y0177661D01*
X0251874Y0177661D01*
X0254116Y0178590D01*
X0255661Y0180135D01*
X0257206Y0178590D01*
X0259448Y0177661D01*
X0261874Y0177661D01*
X0264116Y0178590D01*
X0265661Y0180135D01*
X0267206Y0178590D01*
X0269448Y0177661D01*
X0271874Y0177661D01*
X0274116Y0178590D01*
X0275661Y0180135D01*
X0277206Y0178590D01*
X0279448Y0177661D01*
X0281874Y0177661D01*
X0284116Y0178590D01*
X0285832Y0180306D01*
X0286761Y0182548D01*
X0286761Y0184975D01*
X0285832Y0187217D01*
X0284849Y0188200D01*
X0299527Y0188200D01*
X0299861Y0187866D01*
X0299861Y0186359D01*
X0301789Y0184431D01*
X0301075Y0184135D01*
X0300287Y0183347D01*
X0299861Y0182318D01*
X0299861Y0177000D01*
X0164943Y0177000D01*
X0165061Y0177286D01*
X0165061Y0179535D01*
X0165661Y0180135D01*
X0167206Y0178590D01*
X0169448Y0177661D01*
X0171874Y0177661D01*
X0174116Y0178590D01*
X0175661Y0180135D01*
X0177206Y0178590D01*
X0179448Y0177661D01*
X0181874Y0177661D01*
X0184116Y0178590D01*
X0185661Y0180135D01*
X0187206Y0178590D01*
X0189448Y0177661D01*
X0191874Y0177661D01*
X0194116Y0178590D01*
X0195661Y0180135D01*
X0197206Y0178590D01*
X0199448Y0177661D01*
X0201874Y0177661D01*
X0204116Y0178590D01*
X0205661Y0180135D01*
X0204963Y0179437D02*
X0206359Y0179437D01*
X0214963Y0179437D02*
X0216359Y0179437D01*
X0224963Y0179437D02*
X0226359Y0179437D01*
X0230661Y0183761D02*
X0239500Y0192600D01*
X0301350Y0192600D01*
X0305189Y0188761D01*
X0305661Y0188761D01*
X0305661Y0195661D01*
X0312600Y0202600D01*
X0397600Y0202600D01*
X0402600Y0197600D01*
X0402600Y0191822D01*
X0403161Y0191261D01*
X0421439Y0191261D01*
X0433850Y0178850D01*
X0455100Y0178850D01*
X0460100Y0173850D01*
X0460100Y0136960D01*
X0451498Y0128358D01*
X0451498Y0116498D01*
X0447600Y0112600D01*
X0371596Y0112600D01*
X0370198Y0111202D01*
X0364003Y0109070D02*
X0356090Y0109070D01*
X0355743Y0109907D02*
X0354448Y0111202D01*
X0355743Y0112498D01*
X0356739Y0114901D01*
X0356739Y0116802D01*
X0365349Y0116802D01*
X0365949Y0116202D01*
X0364654Y0114907D01*
X0363658Y0112503D01*
X0363658Y0109901D01*
X0364654Y0107498D01*
X0365949Y0106202D01*
X0365349Y0105602D01*
X0357021Y0105602D01*
X0356739Y0105885D01*
X0356739Y0107503D01*
X0355743Y0109907D01*
X0356752Y0105871D02*
X0365618Y0105871D01*
X0374448Y0106202D02*
X0375171Y0105479D01*
X0376490Y0104932D01*
X0381342Y0100080D01*
X0382580Y0098842D01*
X0383250Y0097225D01*
X0383250Y0078979D01*
X0382580Y0077362D01*
X0380821Y0075602D01*
X0384873Y0075602D01*
X0386490Y0074932D01*
X0420092Y0041330D01*
X0421330Y0040092D01*
X0422000Y0038475D01*
X0422000Y0019799D01*
X0422082Y0019717D01*
X0423011Y0017475D01*
X0423011Y0015048D01*
X0422082Y0012806D01*
X0420366Y0011090D01*
X0418124Y0010161D01*
X0415698Y0010161D01*
X0413456Y0011090D01*
X0411740Y0012806D01*
X0410811Y0015048D01*
X0410811Y0017475D01*
X0411740Y0019717D01*
X0413200Y0021177D01*
X0413200Y0035777D01*
X0382175Y0066802D01*
X0375048Y0066802D01*
X0374598Y0066353D01*
X0374598Y0061823D01*
X0373929Y0060206D01*
X0372691Y0058968D01*
X0372691Y0058968D01*
X0369234Y0055511D01*
X0370152Y0055511D01*
X0372394Y0054582D01*
X0374110Y0052866D01*
X0375039Y0050624D01*
X0375039Y0048198D01*
X0374110Y0045956D01*
X0372394Y0044240D01*
X0370152Y0043311D01*
X0367725Y0043311D01*
X0365483Y0044240D01*
X0363767Y0045956D01*
X0363250Y0047204D01*
X0363250Y0023752D01*
X0362580Y0022135D01*
X0349861Y0009416D01*
X0349861Y0009379D01*
X0362839Y0009379D01*
X0362839Y0010624D01*
X0363767Y0012866D01*
X0365483Y0014582D01*
X0367725Y0015511D01*
X0370152Y0015511D01*
X0372394Y0014582D01*
X0374110Y0012866D01*
X0375039Y0010624D01*
X0375039Y0009379D01*
X0430557Y0009379D01*
X0429689Y0011475D01*
X0429689Y0013902D01*
X0430618Y0016144D01*
X0432334Y0017860D01*
X0434576Y0018789D01*
X0437002Y0018789D01*
X0439244Y0017860D01*
X0440960Y0016144D01*
X0441889Y0013902D01*
X0441889Y0011475D01*
X0441021Y0009379D01*
X0457750Y0009379D01*
X0457750Y0090396D01*
X0456150Y0087624D01*
X0453766Y0085241D01*
X0450848Y0083556D01*
X0447592Y0082684D01*
X0444222Y0082684D01*
X0440966Y0083556D01*
X0438048Y0085241D01*
X0435665Y0087624D01*
X0433979Y0090543D01*
X0433107Y0093799D01*
X0433107Y0097169D01*
X0433979Y0100424D01*
X0435665Y0103343D01*
X0438048Y0105726D01*
X0440966Y0107412D01*
X0443909Y0108200D01*
X0376034Y0108200D01*
X0375743Y0107498D01*
X0374448Y0106202D01*
X0374779Y0105871D02*
X0438298Y0105871D01*
X0447905Y0108200D02*
X0448475Y0108200D01*
X0450092Y0108870D01*
X0451330Y0110108D01*
X0455228Y0114005D01*
X0455898Y0115622D01*
X0455898Y0117373D01*
X0455898Y0123565D01*
X0457008Y0124676D01*
X0457750Y0126467D01*
X0457750Y0100571D01*
X0456150Y0103343D01*
X0453766Y0105726D01*
X0450848Y0107412D01*
X0447905Y0108200D01*
X0450292Y0109070D02*
X0457750Y0109070D01*
X0457750Y0105871D02*
X0453516Y0105871D01*
X0456537Y0102673D02*
X0457750Y0102673D01*
X0435277Y0102673D02*
X0378750Y0102673D01*
X0381948Y0099474D02*
X0433725Y0099474D01*
X0433107Y0096276D02*
X0383250Y0096276D01*
X0383250Y0093077D02*
X0433300Y0093077D01*
X0434363Y0089879D02*
X0383250Y0089879D01*
X0383250Y0086680D02*
X0436609Y0086680D01*
X0441245Y0083482D02*
X0383250Y0083482D01*
X0383250Y0080283D02*
X0457750Y0080283D01*
X0457750Y0077084D02*
X0382303Y0077084D01*
X0378850Y0079854D02*
X0370198Y0071202D01*
X0370198Y0062698D01*
X0358850Y0051350D01*
X0358850Y0024628D01*
X0343761Y0009539D01*
X0334362Y0018939D01*
X0324539Y0018939D01*
X0318939Y0019511D02*
X0315089Y0019511D01*
X0315089Y0020996D02*
X0314663Y0022025D01*
X0313875Y0022812D01*
X0312846Y0023239D01*
X0303732Y0023239D01*
X0302703Y0022812D01*
X0301915Y0022025D01*
X0301489Y0020996D01*
X0301489Y0011882D01*
X0301915Y0010853D01*
X0302703Y0010065D01*
X0303732Y0009639D01*
X0312846Y0009639D01*
X0313875Y0010065D01*
X0314663Y0010853D01*
X0315089Y0011882D01*
X0315089Y0020996D01*
X0313978Y0022710D02*
X0320391Y0022710D01*
X0319245Y0016313D02*
X0315089Y0016313D01*
X0315089Y0013114D02*
X0320795Y0013114D01*
X0318939Y0009916D02*
X0313515Y0009916D01*
X0303063Y0009916D02*
X0296531Y0009916D01*
X0292488Y0009916D02*
X0009320Y0009916D01*
X0154111Y0057893D02*
X0195387Y0057893D01*
X0196950Y0061092D02*
X0154111Y0061092D01*
X0154111Y0064290D02*
X0194687Y0064290D01*
X0191488Y0067489D02*
X0154111Y0067489D01*
X0154111Y0070687D02*
X0189450Y0070687D01*
X0189450Y0073886D02*
X0154111Y0073886D01*
X0154111Y0077084D02*
X0189450Y0077084D01*
X0189450Y0080283D02*
X0154111Y0080283D01*
X0154111Y0083482D02*
X0189450Y0083482D01*
X0198250Y0083482D02*
X0344246Y0083482D01*
X0343658Y0086680D02*
X0198250Y0086680D01*
X0198250Y0089879D02*
X0344642Y0089879D01*
X0355755Y0089879D02*
X0363668Y0089879D01*
X0365472Y0086680D02*
X0356739Y0086680D01*
X0356150Y0083482D02*
X0364063Y0083482D01*
X0363658Y0080283D02*
X0355367Y0080283D01*
X0356739Y0077084D02*
X0365067Y0077084D01*
X0364231Y0073886D02*
X0356318Y0073886D01*
X0353933Y0070687D02*
X0363658Y0070687D01*
X0370198Y0071202D02*
X0383998Y0071202D01*
X0417600Y0037600D01*
X0417600Y0016950D01*
X0416911Y0016261D01*
X0410811Y0016313D02*
X0406737Y0016313D01*
X0407233Y0016809D02*
X0408268Y0019308D01*
X0408268Y0022014D01*
X0407233Y0024513D01*
X0405320Y0026426D01*
X0402821Y0027461D01*
X0400116Y0027461D01*
X0397616Y0026426D01*
X0395703Y0024513D01*
X0394668Y0022014D01*
X0394668Y0019308D01*
X0395703Y0016809D01*
X0397616Y0014896D01*
X0400116Y0013861D01*
X0402821Y0013861D01*
X0405320Y0014896D01*
X0407233Y0016809D01*
X0411612Y0013114D02*
X0373862Y0013114D01*
X0380889Y0016104D02*
X0381315Y0015075D01*
X0382103Y0014287D01*
X0383132Y0013861D01*
X0392246Y0013861D01*
X0393275Y0014287D01*
X0394062Y0015075D01*
X0394489Y0016104D01*
X0394489Y0025218D01*
X0394062Y0026247D01*
X0393275Y0027035D01*
X0392246Y0027461D01*
X0383132Y0027461D01*
X0382103Y0027035D01*
X0381315Y0026247D01*
X0380889Y0025218D01*
X0380889Y0016104D01*
X0380889Y0016313D02*
X0356758Y0016313D01*
X0353559Y0013114D02*
X0364015Y0013114D01*
X0362839Y0009916D02*
X0350361Y0009916D01*
X0337661Y0009416D02*
X0337661Y0009379D01*
X0330139Y0009379D01*
X0330139Y0011258D01*
X0327459Y0013939D01*
X0328059Y0014539D01*
X0332539Y0014539D01*
X0337661Y0009416D01*
X0337162Y0009916D02*
X0330139Y0009916D01*
X0328283Y0013114D02*
X0333964Y0013114D01*
X0343210Y0016313D02*
X0344313Y0016313D01*
X0347511Y0019511D02*
X0340012Y0019511D01*
X0336755Y0022710D02*
X0350710Y0022710D01*
X0359956Y0019511D02*
X0380889Y0019511D01*
X0380889Y0022710D02*
X0362818Y0022710D01*
X0363250Y0025908D02*
X0381175Y0025908D01*
X0394203Y0025908D02*
X0397099Y0025908D01*
X0394956Y0022710D02*
X0394489Y0022710D01*
X0394489Y0019511D02*
X0394668Y0019511D01*
X0394489Y0016313D02*
X0396200Y0016313D01*
X0408268Y0019511D02*
X0411655Y0019511D01*
X0413200Y0022710D02*
X0407980Y0022710D01*
X0405837Y0025908D02*
X0413200Y0025908D01*
X0413200Y0029107D02*
X0363250Y0029107D01*
X0363250Y0032305D02*
X0413200Y0032305D01*
X0413200Y0035504D02*
X0363250Y0035504D01*
X0363250Y0038702D02*
X0410275Y0038702D01*
X0407077Y0041901D02*
X0363250Y0041901D01*
X0363250Y0045099D02*
X0364624Y0045099D01*
X0373254Y0045099D02*
X0403878Y0045099D01*
X0400680Y0048298D02*
X0375039Y0048298D01*
X0374677Y0051496D02*
X0397481Y0051496D01*
X0394283Y0054695D02*
X0372122Y0054695D01*
X0371616Y0057893D02*
X0391084Y0057893D01*
X0387886Y0061092D02*
X0374296Y0061092D01*
X0374598Y0064290D02*
X0384687Y0064290D01*
X0393934Y0067489D02*
X0457750Y0067489D01*
X0457750Y0064290D02*
X0397132Y0064290D01*
X0400331Y0061092D02*
X0413115Y0061092D01*
X0413456Y0061433D02*
X0411740Y0059717D01*
X0410811Y0057475D01*
X0410811Y0055048D01*
X0411740Y0052806D01*
X0413456Y0051090D01*
X0415698Y0050161D01*
X0418124Y0050161D01*
X0420366Y0051090D01*
X0422082Y0052806D01*
X0423011Y0055048D01*
X0423011Y0057475D01*
X0422082Y0059717D01*
X0420366Y0061433D01*
X0418124Y0062361D01*
X0415698Y0062361D01*
X0413456Y0061433D01*
X0420707Y0061092D02*
X0457750Y0061092D01*
X0457750Y0057893D02*
X0439163Y0057893D01*
X0439244Y0057860D02*
X0437002Y0058789D01*
X0434576Y0058789D01*
X0432334Y0057860D01*
X0430618Y0056144D01*
X0429689Y0053902D01*
X0429689Y0051475D01*
X0430618Y0049233D01*
X0432334Y0047517D01*
X0434576Y0046589D01*
X0437002Y0046589D01*
X0439244Y0047517D01*
X0440960Y0049233D01*
X0441889Y0051475D01*
X0441889Y0053902D01*
X0440960Y0056144D01*
X0439244Y0057860D01*
X0441561Y0054695D02*
X0457750Y0054695D01*
X0457750Y0051496D02*
X0441889Y0051496D01*
X0440025Y0048298D02*
X0457750Y0048298D01*
X0457750Y0045099D02*
X0416323Y0045099D01*
X0413125Y0048298D02*
X0431553Y0048298D01*
X0429689Y0051496D02*
X0420773Y0051496D01*
X0422865Y0054695D02*
X0430017Y0054695D01*
X0432415Y0057893D02*
X0422838Y0057893D01*
X0410984Y0057893D02*
X0403529Y0057893D01*
X0406728Y0054695D02*
X0410957Y0054695D01*
X0409926Y0051496D02*
X0413049Y0051496D01*
X0419522Y0041901D02*
X0457750Y0041901D01*
X0457750Y0038702D02*
X0421906Y0038702D01*
X0422000Y0035504D02*
X0457750Y0035504D01*
X0457750Y0032305D02*
X0422000Y0032305D01*
X0422000Y0029107D02*
X0457750Y0029107D01*
X0457750Y0025908D02*
X0422000Y0025908D01*
X0422000Y0022710D02*
X0457750Y0022710D01*
X0457750Y0019511D02*
X0422167Y0019511D01*
X0423011Y0016313D02*
X0430786Y0016313D01*
X0429689Y0013114D02*
X0422210Y0013114D01*
X0430335Y0009916D02*
X0375039Y0009916D01*
X0440791Y0016313D02*
X0457750Y0016313D01*
X0457750Y0013114D02*
X0441889Y0013114D01*
X0441243Y0009916D02*
X0457750Y0009916D01*
X0354450Y0045099D02*
X0347949Y0045099D01*
X0347217Y0044368D02*
X0348933Y0046084D01*
X0349861Y0048326D01*
X0349861Y0050752D01*
X0348933Y0052994D01*
X0347217Y0054710D01*
X0344975Y0055639D01*
X0342548Y0055639D01*
X0340306Y0054710D01*
X0338590Y0052994D01*
X0337661Y0050752D01*
X0337661Y0048326D01*
X0338590Y0046084D01*
X0340306Y0044368D01*
X0342548Y0043439D01*
X0344975Y0043439D01*
X0347217Y0044368D01*
X0349850Y0048298D02*
X0354450Y0048298D01*
X0354450Y0051496D02*
X0349553Y0051496D01*
X0347232Y0054695D02*
X0355972Y0054695D01*
X0359171Y0057893D02*
X0278563Y0057893D01*
X0276485Y0061092D02*
X0362369Y0061092D01*
X0365568Y0064290D02*
X0205750Y0064290D01*
X0203934Y0067489D02*
X0364663Y0067489D01*
X0346464Y0070687D02*
X0200735Y0070687D01*
X0198250Y0073886D02*
X0344079Y0073886D01*
X0343658Y0077084D02*
X0198250Y0077084D01*
X0198250Y0080283D02*
X0345030Y0080283D01*
X0374448Y0086202D02*
X0374450Y0086200D01*
X0374450Y0086205D01*
X0374448Y0086202D01*
X0378850Y0079854D02*
X0378850Y0096350D01*
X0373998Y0101202D01*
X0370198Y0101202D01*
X0355198Y0101202D01*
X0350198Y0106202D01*
X0348801Y0107600D01*
X0343850Y0107600D01*
X0342600Y0108850D01*
X0342600Y0121350D01*
X0347452Y0126202D01*
X0350198Y0126202D01*
X0350198Y0116202D01*
X0355513Y0112268D02*
X0363658Y0112268D01*
X0365214Y0115467D02*
X0356739Y0115467D01*
X0355198Y0121202D02*
X0350198Y0126202D01*
X0356425Y0128261D02*
X0364338Y0128261D01*
X0364654Y0127498D02*
X0365949Y0126202D01*
X0365349Y0125602D01*
X0357021Y0125602D01*
X0356739Y0125885D01*
X0356739Y0127503D01*
X0355743Y0129907D01*
X0354448Y0131202D01*
X0355743Y0132498D01*
X0356739Y0134901D01*
X0356739Y0137503D01*
X0355743Y0139907D01*
X0353903Y0141747D01*
X0351499Y0142743D01*
X0348898Y0142743D01*
X0346494Y0141747D01*
X0344654Y0139907D01*
X0343658Y0137503D01*
X0343658Y0134901D01*
X0344654Y0132498D01*
X0345949Y0131202D01*
X0344654Y0129907D01*
X0344456Y0129428D01*
X0340108Y0125080D01*
X0338870Y0123842D01*
X0338200Y0122225D01*
X0338200Y0107975D01*
X0338870Y0106358D01*
X0340120Y0105108D01*
X0341358Y0103870D01*
X0342975Y0103200D01*
X0344363Y0103200D01*
X0344654Y0102498D01*
X0345949Y0101202D01*
X0345349Y0100602D01*
X0320043Y0100602D01*
X0272659Y0147986D01*
X0274116Y0148590D01*
X0275661Y0150135D01*
X0277206Y0148590D01*
X0279448Y0147661D01*
X0281874Y0147661D01*
X0284116Y0148590D01*
X0285832Y0150306D01*
X0286761Y0152548D01*
X0286761Y0154975D01*
X0285832Y0157217D01*
X0284849Y0158200D01*
X0403277Y0158200D01*
X0420511Y0140966D01*
X0422128Y0140296D01*
X0435524Y0140296D01*
X0436577Y0139244D01*
X0434806Y0137473D01*
X0433817Y0135084D01*
X0433817Y0132498D01*
X0434806Y0130109D01*
X0436577Y0128338D01*
X0434806Y0126567D01*
X0433817Y0124178D01*
X0433817Y0121592D01*
X0434806Y0119203D01*
X0436635Y0117375D01*
X0437540Y0117000D01*
X0375245Y0117000D01*
X0375743Y0117498D01*
X0376739Y0119901D01*
X0376739Y0122503D01*
X0375743Y0124907D01*
X0374448Y0126202D01*
X0375743Y0127498D01*
X0376739Y0129901D01*
X0376739Y0132503D01*
X0375743Y0134907D01*
X0374448Y0136202D01*
X0375743Y0137498D01*
X0376739Y0139901D01*
X0376739Y0142503D01*
X0375743Y0144907D01*
X0373903Y0146747D01*
X0371499Y0147743D01*
X0368898Y0147743D01*
X0366494Y0146747D01*
X0364654Y0144907D01*
X0363658Y0142503D01*
X0363658Y0139901D01*
X0364654Y0137498D01*
X0365949Y0136202D01*
X0364654Y0134907D01*
X0363658Y0132503D01*
X0363658Y0129901D01*
X0364654Y0127498D01*
X0363658Y0131459D02*
X0354704Y0131459D01*
X0356638Y0134658D02*
X0364551Y0134658D01*
X0364505Y0137856D02*
X0356592Y0137856D01*
X0354595Y0141055D02*
X0363658Y0141055D01*
X0364383Y0144253D02*
X0276392Y0144253D01*
X0273193Y0147452D02*
X0368196Y0147452D01*
X0372201Y0147452D02*
X0414026Y0147452D01*
X0417224Y0144253D02*
X0376014Y0144253D01*
X0376739Y0141055D02*
X0420423Y0141055D01*
X0423004Y0144696D02*
X0405100Y0162600D01*
X0175100Y0162600D01*
X0171350Y0158850D01*
X0171350Y0154450D01*
X0170661Y0153761D01*
X0166950Y0158677D02*
X0165661Y0157388D01*
X0165061Y0157988D01*
X0165061Y0158838D01*
X0169423Y0163200D01*
X0169477Y0163200D01*
X0168858Y0162580D01*
X0167620Y0161342D01*
X0166950Y0159725D01*
X0166950Y0158677D01*
X0167166Y0160246D02*
X0166468Y0160246D01*
X0160661Y0160661D02*
X0167600Y0167600D01*
X0413850Y0167600D01*
X0426350Y0155100D01*
X0439815Y0155100D01*
X0440317Y0155602D01*
X0446817Y0156524D02*
X0446817Y0154641D01*
X0447758Y0155582D01*
X0446817Y0156524D01*
X0444998Y0160113D02*
X0444948Y0160163D01*
X0444998Y0160183D01*
X0444998Y0160113D01*
X0435685Y0160163D02*
X0435022Y0159500D01*
X0428173Y0159500D01*
X0416342Y0171330D01*
X0414725Y0172000D01*
X0328223Y0172000D01*
X0328830Y0172608D01*
X0329500Y0174225D01*
X0329500Y0174398D01*
X0331461Y0176359D01*
X0331461Y0181164D01*
X0328863Y0183761D01*
X0331461Y0186359D01*
X0331461Y0191164D01*
X0328063Y0194561D01*
X0323259Y0194561D01*
X0320661Y0191964D01*
X0318063Y0194561D01*
X0313259Y0194561D01*
X0310661Y0191964D01*
X0310061Y0192564D01*
X0310061Y0193838D01*
X0314423Y0198200D01*
X0395777Y0198200D01*
X0397259Y0196719D01*
X0397087Y0196547D01*
X0397081Y0196533D01*
X0396843Y0196772D01*
X0394454Y0197761D01*
X0391868Y0197761D01*
X0389479Y0196772D01*
X0388161Y0195454D01*
X0386843Y0196772D01*
X0384454Y0197761D01*
X0381868Y0197761D01*
X0379479Y0196772D01*
X0377651Y0194943D01*
X0376661Y0192554D01*
X0376661Y0189968D01*
X0377651Y0187579D01*
X0379479Y0185751D01*
X0381868Y0184761D01*
X0384454Y0184761D01*
X0386843Y0185751D01*
X0388161Y0187069D01*
X0389479Y0185751D01*
X0391868Y0184761D01*
X0394454Y0184761D01*
X0396843Y0185751D01*
X0397081Y0185989D01*
X0397087Y0185975D01*
X0397875Y0185188D01*
X0398904Y0184761D01*
X0407418Y0184761D01*
X0408447Y0185188D01*
X0409235Y0185975D01*
X0409602Y0186861D01*
X0419616Y0186861D01*
X0430120Y0176358D01*
X0430120Y0176358D01*
X0431358Y0175120D01*
X0432975Y0174450D01*
X0453277Y0174450D01*
X0455700Y0172027D01*
X0455700Y0166025D01*
X0455180Y0166545D01*
X0452791Y0167535D01*
X0450205Y0167535D01*
X0447816Y0166545D01*
X0446817Y0165546D01*
X0446817Y0170764D01*
X0446390Y0171794D01*
X0445603Y0172581D01*
X0444573Y0173007D01*
X0436060Y0173007D01*
X0435030Y0172581D01*
X0434243Y0171794D01*
X0433817Y0170764D01*
X0433817Y0162251D01*
X0434243Y0161221D01*
X0435030Y0160434D01*
X0435685Y0160163D01*
X0435484Y0160246D02*
X0427427Y0160246D01*
X0418180Y0157047D02*
X0416875Y0157047D01*
X0414982Y0160246D02*
X0413677Y0160246D01*
X0412027Y0163200D02*
X0410723Y0163200D01*
X0424826Y0149096D01*
X0435524Y0149096D01*
X0436577Y0150149D01*
X0436026Y0150700D01*
X0425475Y0150700D01*
X0423858Y0151370D01*
X0422620Y0152608D01*
X0422620Y0152608D01*
X0412027Y0163200D01*
X0421030Y0166643D02*
X0433817Y0166643D01*
X0433817Y0163444D02*
X0424228Y0163444D01*
X0417831Y0169841D02*
X0433817Y0169841D01*
X0446817Y0169841D02*
X0455700Y0169841D01*
X0454688Y0173040D02*
X0329009Y0173040D01*
X0325100Y0175100D02*
X0325100Y0178200D01*
X0325661Y0178761D01*
X0325100Y0175100D02*
X0322600Y0172600D01*
X0163850Y0172600D01*
X0150661Y0159411D01*
X0150661Y0153761D01*
X0149711Y0152811D01*
X0149711Y0121411D01*
X0160789Y0110333D01*
X0160789Y0088939D01*
X0166189Y0089879D02*
X0189450Y0089879D01*
X0189450Y0086680D02*
X0166167Y0086680D01*
X0155411Y0086680D02*
X0154111Y0086680D01*
X0154111Y0089879D02*
X0155389Y0089879D01*
X0156389Y0093077D02*
X0154111Y0093077D01*
X0154111Y0096276D02*
X0156389Y0096276D01*
X0156389Y0099474D02*
X0154766Y0099474D01*
X0156211Y0102673D02*
X0156389Y0102673D01*
X0156389Y0105871D02*
X0155811Y0105871D01*
X0155830Y0109070D02*
X0153445Y0109070D01*
X0152632Y0112268D02*
X0072629Y0112268D01*
X0069430Y0115467D02*
X0121478Y0115467D01*
X0120429Y0115901D02*
X0122818Y0114911D01*
X0125404Y0114911D01*
X0127793Y0115901D01*
X0129621Y0117729D01*
X0130611Y0120118D01*
X0130611Y0122704D01*
X0129621Y0125093D01*
X0127793Y0126922D01*
X0125404Y0127911D01*
X0122818Y0127911D01*
X0120429Y0126922D01*
X0118601Y0125093D01*
X0117611Y0122704D01*
X0117611Y0120118D01*
X0118601Y0117729D01*
X0120429Y0115901D01*
X0126744Y0115467D02*
X0147078Y0115467D01*
X0143813Y0118665D02*
X0130009Y0118665D01*
X0130611Y0121864D02*
X0143211Y0121864D01*
X0144188Y0125062D02*
X0129634Y0125062D01*
X0118588Y0125062D02*
X0080864Y0125062D01*
X0080864Y0126717D02*
X0077701Y0129880D01*
X0073227Y0129880D01*
X0070064Y0126717D01*
X0070064Y0122243D01*
X0073227Y0119080D01*
X0077701Y0119080D01*
X0080864Y0122243D01*
X0080864Y0126717D01*
X0079320Y0128261D02*
X0145311Y0128261D01*
X0145311Y0131459D02*
X0104088Y0131459D01*
X0103933Y0131084D02*
X0104861Y0133326D01*
X0104861Y0135752D01*
X0103933Y0137994D01*
X0102217Y0139710D01*
X0099975Y0140639D01*
X0097548Y0140639D01*
X0095306Y0139710D01*
X0093590Y0137994D01*
X0092661Y0135752D01*
X0092661Y0133326D01*
X0093590Y0131084D01*
X0095306Y0129368D01*
X0097548Y0128439D01*
X0099975Y0128439D01*
X0102217Y0129368D01*
X0103933Y0131084D01*
X0104861Y0134658D02*
X0145311Y0134658D01*
X0145311Y0137856D02*
X0103990Y0137856D01*
X0093533Y0137856D02*
X0047041Y0137856D01*
X0044777Y0141055D02*
X0057383Y0141055D01*
X0056293Y0144253D02*
X0047976Y0144253D01*
X0051174Y0147452D02*
X0057126Y0147452D01*
X0064293Y0144381D02*
X0065011Y0145100D01*
X0127600Y0145100D01*
X0160661Y0178161D01*
X0160661Y0183761D01*
X0156037Y0179759D02*
X0125777Y0149500D01*
X0124846Y0149500D01*
X0126342Y0150120D01*
X0127580Y0151358D01*
X0154391Y0178169D01*
X0154883Y0179357D01*
X0155661Y0180135D01*
X0156037Y0179759D01*
X0155714Y0179437D02*
X0154963Y0179437D01*
X0152516Y0176238D02*
X0152461Y0176238D01*
X0143214Y0179437D02*
X0102490Y0179437D01*
X0102217Y0179710D02*
X0103933Y0177994D01*
X0104861Y0175752D01*
X0104861Y0173326D01*
X0103933Y0171084D01*
X0102217Y0169368D01*
X0099975Y0168439D01*
X0097548Y0168439D01*
X0095306Y0169368D01*
X0093590Y0171084D01*
X0092661Y0173326D01*
X0092661Y0175752D01*
X0093590Y0177994D01*
X0095306Y0179710D01*
X0097548Y0180639D01*
X0099975Y0180639D01*
X0102217Y0179710D01*
X0104660Y0176238D02*
X0140016Y0176238D01*
X0136817Y0173040D02*
X0104743Y0173040D01*
X0102690Y0169841D02*
X0133619Y0169841D01*
X0130420Y0166643D02*
X0080864Y0166643D01*
X0080864Y0166717D02*
X0077701Y0169880D01*
X0073227Y0169880D01*
X0071129Y0167782D01*
X0069952Y0168959D01*
X0068933Y0169381D01*
X0069952Y0169804D01*
X0071471Y0171323D01*
X0072293Y0173307D01*
X0072293Y0175456D01*
X0071471Y0177440D01*
X0069952Y0178959D01*
X0068767Y0179450D01*
X0087225Y0179450D01*
X0088842Y0180120D01*
X0090080Y0181358D01*
X0099423Y0190700D01*
X0204527Y0190700D01*
X0206261Y0188966D01*
X0206261Y0187988D01*
X0205661Y0187388D01*
X0204116Y0188933D01*
X0201874Y0189861D01*
X0199448Y0189861D01*
X0197206Y0188933D01*
X0195661Y0187388D01*
X0194116Y0188933D01*
X0191874Y0189861D01*
X0189448Y0189861D01*
X0187206Y0188933D01*
X0185661Y0187388D01*
X0184116Y0188933D01*
X0181874Y0189861D01*
X0179448Y0189861D01*
X0177206Y0188933D01*
X0175661Y0187388D01*
X0174116Y0188933D01*
X0171874Y0189861D01*
X0169448Y0189861D01*
X0167206Y0188933D01*
X0165661Y0187388D01*
X0164116Y0188933D01*
X0161874Y0189861D01*
X0159448Y0189861D01*
X0157206Y0188933D01*
X0155661Y0187388D01*
X0154116Y0188933D01*
X0151874Y0189861D01*
X0149448Y0189861D01*
X0147206Y0188933D01*
X0145490Y0187217D01*
X0144561Y0184975D01*
X0144561Y0182548D01*
X0145078Y0181300D01*
X0122027Y0158250D01*
X0070661Y0158250D01*
X0069952Y0158959D01*
X0068933Y0159381D01*
X0069952Y0159804D01*
X0071228Y0161080D01*
X0073227Y0159080D01*
X0077701Y0159080D01*
X0080864Y0162243D01*
X0080864Y0166717D01*
X0080864Y0163444D02*
X0127222Y0163444D01*
X0124023Y0160246D02*
X0078867Y0160246D01*
X0072062Y0160246D02*
X0070394Y0160246D01*
X0064293Y0154381D02*
X0064824Y0153850D01*
X0123850Y0153850D01*
X0150661Y0180661D01*
X0150661Y0183761D01*
X0144917Y0185834D02*
X0094556Y0185834D01*
X0091358Y0182635D02*
X0144561Y0182635D01*
X0147446Y0189032D02*
X0097755Y0189032D01*
X0089261Y0192984D02*
X0089261Y0194975D01*
X0088332Y0197217D01*
X0086616Y0198933D01*
X0084374Y0199861D01*
X0081948Y0199861D01*
X0079706Y0198933D01*
X0077990Y0197217D01*
X0077061Y0194975D01*
X0077061Y0192548D01*
X0077990Y0190306D01*
X0079706Y0188590D01*
X0080527Y0188250D01*
X0062975Y0188250D01*
X0061358Y0187580D01*
X0048858Y0175080D01*
X0047620Y0173842D01*
X0046950Y0172225D01*
X0046950Y0155673D01*
X0040094Y0148817D01*
X0039952Y0148959D01*
X0038933Y0149381D01*
X0039952Y0149804D01*
X0041471Y0151323D01*
X0042293Y0153307D01*
X0042293Y0155456D01*
X0041471Y0157440D01*
X0039952Y0158959D01*
X0038933Y0159381D01*
X0039952Y0159804D01*
X0041471Y0161323D01*
X0042293Y0163307D01*
X0042293Y0165456D01*
X0041471Y0167440D01*
X0039952Y0168959D01*
X0038933Y0169381D01*
X0039952Y0169804D01*
X0041471Y0171323D01*
X0042293Y0173307D01*
X0042293Y0175456D01*
X0041471Y0177440D01*
X0039952Y0178959D01*
X0037967Y0179781D01*
X0030619Y0179781D01*
X0028634Y0178959D01*
X0027115Y0177440D01*
X0026293Y0175456D01*
X0026293Y0173307D01*
X0027115Y0171323D01*
X0028634Y0169804D01*
X0029653Y0169381D01*
X0028634Y0168959D01*
X0027115Y0167440D01*
X0027073Y0167339D01*
X0026322Y0169153D01*
X0024803Y0170672D01*
X0022818Y0171494D01*
X0020670Y0171494D01*
X0018685Y0170672D01*
X0017166Y0169153D01*
X0016744Y0168134D01*
X0016322Y0169153D01*
X0014803Y0170672D01*
X0012818Y0171494D01*
X0010670Y0171494D01*
X0009320Y0170935D01*
X0009320Y0201904D01*
X0305681Y0201904D01*
X0301931Y0198153D01*
X0301453Y0197000D01*
X0238624Y0197000D01*
X0237007Y0196330D01*
X0230538Y0189861D01*
X0229448Y0189861D01*
X0227206Y0188933D01*
X0225661Y0187388D01*
X0224116Y0188933D01*
X0221874Y0189861D01*
X0219448Y0189861D01*
X0217206Y0188933D01*
X0215661Y0187388D01*
X0215061Y0187988D01*
X0215061Y0191664D01*
X0214391Y0193281D01*
X0210080Y0197592D01*
X0208842Y0198830D01*
X0207225Y0199500D01*
X0096725Y0199500D01*
X0095108Y0198830D01*
X0089261Y0192984D01*
X0089073Y0195429D02*
X0091707Y0195429D01*
X0094905Y0198628D02*
X0086921Y0198628D01*
X0079401Y0198628D02*
X0046921Y0198628D01*
X0046616Y0198933D02*
X0048332Y0197217D01*
X0049261Y0194975D01*
X0049261Y0192548D01*
X0048332Y0190306D01*
X0046616Y0188590D01*
X0044374Y0187661D01*
X0041948Y0187661D01*
X0039706Y0188590D01*
X0037990Y0190306D01*
X0037061Y0192548D01*
X0037061Y0194975D01*
X0037990Y0197217D01*
X0039706Y0198933D01*
X0041948Y0199861D01*
X0044374Y0199861D01*
X0046616Y0198933D01*
X0049073Y0195429D02*
X0077249Y0195429D01*
X0077192Y0192231D02*
X0049130Y0192231D01*
X0047059Y0189032D02*
X0079263Y0189032D01*
X0059611Y0185834D02*
X0009320Y0185834D01*
X0009320Y0182635D02*
X0056413Y0182635D01*
X0053214Y0179437D02*
X0038799Y0179437D01*
X0041969Y0176238D02*
X0050016Y0176238D01*
X0047287Y0173040D02*
X0042182Y0173040D01*
X0039989Y0169841D02*
X0046950Y0169841D01*
X0046950Y0166643D02*
X0041801Y0166643D01*
X0042293Y0163444D02*
X0046950Y0163444D01*
X0055750Y0163444D02*
X0056293Y0163444D01*
X0056785Y0166643D02*
X0055750Y0166643D01*
X0056064Y0169841D02*
X0058596Y0169841D01*
X0069989Y0169841D02*
X0073189Y0169841D01*
X0072182Y0173040D02*
X0092780Y0173040D01*
X0094832Y0169841D02*
X0077739Y0169841D01*
X0071969Y0176238D02*
X0092863Y0176238D01*
X0095033Y0179437D02*
X0068799Y0179437D01*
X0039263Y0189032D02*
X0009320Y0189032D01*
X0009320Y0192231D02*
X0037192Y0192231D01*
X0037249Y0195429D02*
X0009320Y0195429D01*
X0009320Y0198628D02*
X0039401Y0198628D01*
X0009320Y0201826D02*
X0305604Y0201826D01*
X0302405Y0198628D02*
X0209045Y0198628D01*
X0212243Y0195429D02*
X0236106Y0195429D01*
X0232908Y0192231D02*
X0214826Y0192231D01*
X0215061Y0189032D02*
X0217446Y0189032D01*
X0223876Y0189032D02*
X0227446Y0189032D01*
X0244849Y0188200D02*
X0245661Y0187388D01*
X0246473Y0188200D01*
X0244849Y0188200D01*
X0254849Y0188200D02*
X0255661Y0187388D01*
X0256473Y0188200D01*
X0254849Y0188200D01*
X0264849Y0188200D02*
X0266473Y0188200D01*
X0265661Y0187388D01*
X0264849Y0188200D01*
X0274849Y0188200D02*
X0276473Y0188200D01*
X0275661Y0187388D01*
X0274849Y0188200D01*
X0286405Y0185834D02*
X0300386Y0185834D01*
X0299992Y0182635D02*
X0286761Y0182635D01*
X0284963Y0179437D02*
X0299861Y0179437D01*
X0309533Y0184431D02*
X0310661Y0185559D01*
X0312459Y0183761D01*
X0311331Y0182633D01*
X0311035Y0183347D01*
X0310247Y0184135D01*
X0309533Y0184431D01*
X0311330Y0182635D02*
X0311333Y0182635D01*
X0318863Y0183761D02*
X0320661Y0185559D01*
X0322459Y0183761D01*
X0320661Y0181964D01*
X0318863Y0183761D01*
X0319989Y0182635D02*
X0321333Y0182635D01*
X0329989Y0182635D02*
X0423842Y0182635D01*
X0420644Y0185834D02*
X0409093Y0185834D01*
X0397229Y0185834D02*
X0396926Y0185834D01*
X0389396Y0185834D02*
X0386926Y0185834D01*
X0379396Y0185834D02*
X0330936Y0185834D01*
X0331461Y0189032D02*
X0377049Y0189032D01*
X0376661Y0192231D02*
X0330394Y0192231D01*
X0320928Y0192231D02*
X0320394Y0192231D01*
X0310928Y0192231D02*
X0310394Y0192231D01*
X0311652Y0195429D02*
X0378137Y0195429D01*
X0404519Y0201904D02*
X0435800Y0201904D01*
X0435665Y0201768D01*
X0433979Y0198850D01*
X0433107Y0195594D01*
X0433107Y0192224D01*
X0433979Y0188968D01*
X0435665Y0186050D01*
X0438048Y0183666D01*
X0438769Y0183250D01*
X0435673Y0183250D01*
X0423931Y0194992D01*
X0422314Y0195661D01*
X0409602Y0195661D01*
X0409235Y0196547D01*
X0408447Y0197335D01*
X0407418Y0197761D01*
X0407000Y0197761D01*
X0407000Y0198475D01*
X0406330Y0200092D01*
X0405092Y0201330D01*
X0404519Y0201904D01*
X0404596Y0201826D02*
X0435723Y0201826D01*
X0433920Y0198628D02*
X0406937Y0198628D01*
X0422874Y0195429D02*
X0433107Y0195429D01*
X0433107Y0192231D02*
X0426692Y0192231D01*
X0429890Y0189032D02*
X0433962Y0189032D01*
X0433089Y0185834D02*
X0435880Y0185834D01*
X0427041Y0179437D02*
X0331461Y0179437D01*
X0331340Y0176238D02*
X0430239Y0176238D01*
X0453045Y0183250D02*
X0453766Y0183666D01*
X0456150Y0186050D01*
X0457750Y0188822D01*
X0457750Y0182423D01*
X0457592Y0182580D01*
X0455975Y0183250D01*
X0453045Y0183250D01*
X0455934Y0185834D02*
X0457750Y0185834D01*
X0457750Y0182635D02*
X0457459Y0182635D01*
X0455700Y0166643D02*
X0454945Y0166643D01*
X0448051Y0166643D02*
X0446817Y0166643D01*
X0455700Y0156045D02*
X0455700Y0155120D01*
X0455237Y0155582D01*
X0455700Y0156045D01*
X0444998Y0151091D02*
X0444998Y0149208D01*
X0444056Y0150149D01*
X0444998Y0151091D01*
X0444998Y0150650D02*
X0444557Y0150650D01*
X0436076Y0150650D02*
X0423272Y0150650D01*
X0421379Y0153849D02*
X0420074Y0153849D01*
X0410827Y0150650D02*
X0285975Y0150650D01*
X0286761Y0153849D02*
X0407629Y0153849D01*
X0404430Y0157047D02*
X0285903Y0157047D01*
X0276473Y0158200D02*
X0275661Y0157388D01*
X0274849Y0158200D01*
X0276473Y0158200D01*
X0266473Y0158200D02*
X0265661Y0157388D01*
X0264849Y0158200D01*
X0266473Y0158200D01*
X0260661Y0153761D02*
X0318220Y0096202D01*
X0350198Y0096202D01*
X0355983Y0093077D02*
X0363896Y0093077D01*
X0365876Y0096276D02*
X0356739Y0096276D01*
X0344581Y0102673D02*
X0317972Y0102673D01*
X0314774Y0105871D02*
X0339356Y0105871D01*
X0338200Y0109070D02*
X0311575Y0109070D01*
X0308377Y0112268D02*
X0338200Y0112268D01*
X0338200Y0115467D02*
X0305178Y0115467D01*
X0295932Y0112268D02*
X0198250Y0112268D01*
X0198250Y0115467D02*
X0202286Y0115467D01*
X0200061Y0118665D02*
X0198250Y0118665D01*
X0198250Y0121864D02*
X0200061Y0121864D01*
X0205661Y0120011D02*
X0207300Y0121650D01*
X0208939Y0120011D01*
X0268161Y0120011D01*
X0273761Y0118665D02*
X0289535Y0118665D01*
X0286336Y0121864D02*
X0273761Y0121864D01*
X0271131Y0125062D02*
X0283138Y0125062D01*
X0279939Y0128261D02*
X0273761Y0128261D01*
X0265191Y0125062D02*
X0248573Y0125062D01*
X0244249Y0125062D02*
X0229573Y0125062D01*
X0225249Y0125062D02*
X0216934Y0125062D01*
X0220133Y0128261D02*
X0222291Y0128261D01*
X0227411Y0130011D02*
X0230661Y0133261D01*
X0230661Y0153761D01*
X0226261Y0149535D02*
X0225661Y0150135D01*
X0225061Y0149535D01*
X0225061Y0134883D01*
X0226261Y0135380D01*
X0226261Y0149535D01*
X0226261Y0147452D02*
X0225061Y0147452D01*
X0225061Y0144253D02*
X0226261Y0144253D01*
X0226261Y0141055D02*
X0225061Y0141055D01*
X0225061Y0137856D02*
X0226261Y0137856D01*
X0220661Y0135011D02*
X0207300Y0121650D01*
X0202691Y0125062D02*
X0198250Y0125062D01*
X0198250Y0128261D02*
X0200061Y0128261D01*
X0200061Y0131459D02*
X0198250Y0131459D01*
X0198250Y0134658D02*
X0202388Y0134658D01*
X0193850Y0136950D02*
X0193850Y0071350D01*
X0201350Y0063850D01*
X0201350Y0056350D01*
X0207267Y0054695D02*
X0220061Y0054695D01*
X0222506Y0051496D02*
X0205123Y0051496D01*
X0207313Y0057893D02*
X0220061Y0057893D01*
X0222572Y0061092D02*
X0205750Y0061092D01*
X0228750Y0061092D02*
X0241922Y0061092D01*
X0239500Y0057893D02*
X0231261Y0057893D01*
X0231261Y0054695D02*
X0239500Y0054695D01*
X0242034Y0051496D02*
X0228816Y0051496D01*
X0231261Y0048298D02*
X0239500Y0048298D01*
X0239500Y0045099D02*
X0231261Y0045099D01*
X0248166Y0051496D02*
X0268827Y0051496D01*
X0266683Y0054695D02*
X0250700Y0054695D01*
X0250700Y0057893D02*
X0266637Y0057893D01*
X0268715Y0061092D02*
X0248278Y0061092D01*
X0250700Y0048298D02*
X0266500Y0048298D01*
X0266500Y0045099D02*
X0250700Y0045099D01*
X0276373Y0051496D02*
X0337970Y0051496D01*
X0340291Y0054695D02*
X0278517Y0054695D01*
X0278700Y0048298D02*
X0337673Y0048298D01*
X0339574Y0045099D02*
X0278700Y0045099D01*
X0297139Y0022710D02*
X0302600Y0022710D01*
X0301489Y0019511D02*
X0300597Y0019511D01*
X0301309Y0016313D02*
X0301489Y0016313D01*
X0301489Y0013114D02*
X0300493Y0013114D01*
X0390735Y0070687D02*
X0457750Y0070687D01*
X0457750Y0073886D02*
X0387537Y0073886D01*
X0450569Y0083482D02*
X0457750Y0083482D01*
X0457750Y0086680D02*
X0455205Y0086680D01*
X0457451Y0089879D02*
X0457750Y0089879D01*
X0457750Y0112268D02*
X0453491Y0112268D01*
X0455833Y0115467D02*
X0457750Y0115467D01*
X0457750Y0118665D02*
X0455898Y0118665D01*
X0455898Y0121864D02*
X0457750Y0121864D01*
X0457750Y0125062D02*
X0457168Y0125062D01*
X0447098Y0123565D02*
X0447098Y0118320D01*
X0445777Y0117000D01*
X0443093Y0117000D01*
X0443998Y0117375D01*
X0445827Y0119203D01*
X0446817Y0121592D01*
X0446817Y0123847D01*
X0447098Y0123565D01*
X0447098Y0121864D02*
X0446817Y0121864D01*
X0447098Y0118665D02*
X0445289Y0118665D01*
X0435344Y0118665D02*
X0376226Y0118665D01*
X0376739Y0121864D02*
X0433817Y0121864D01*
X0434183Y0125062D02*
X0375588Y0125062D01*
X0376059Y0128261D02*
X0436499Y0128261D01*
X0434247Y0131459D02*
X0376739Y0131459D01*
X0375846Y0134658D02*
X0433817Y0134658D01*
X0435189Y0137856D02*
X0375891Y0137856D01*
X0345802Y0141055D02*
X0279590Y0141055D01*
X0282789Y0137856D02*
X0343804Y0137856D01*
X0343759Y0134658D02*
X0285987Y0134658D01*
X0289186Y0131459D02*
X0345692Y0131459D01*
X0343288Y0128261D02*
X0292384Y0128261D01*
X0295583Y0125062D02*
X0340090Y0125062D01*
X0338200Y0121864D02*
X0298781Y0121864D01*
X0301980Y0118665D02*
X0338200Y0118665D01*
X0355198Y0121202D02*
X0370198Y0121202D01*
X0423004Y0144696D02*
X0440317Y0144696D01*
X0446817Y0144253D02*
X0447295Y0144253D01*
X0447738Y0144696D02*
X0446817Y0143775D01*
X0446817Y0145618D01*
X0447738Y0144696D01*
X0444998Y0140185D02*
X0444998Y0138302D01*
X0444056Y0139244D01*
X0444998Y0140185D01*
X0455257Y0144696D02*
X0455700Y0144253D01*
X0455700Y0145140D01*
X0455257Y0144696D01*
X0446817Y0134752D02*
X0446817Y0132869D01*
X0447758Y0133811D01*
X0446817Y0134752D01*
X0446817Y0134658D02*
X0446911Y0134658D01*
X0444998Y0129280D02*
X0444998Y0127397D01*
X0444056Y0128338D01*
X0444998Y0129280D01*
X0444998Y0128261D02*
X0444134Y0128261D01*
X0315123Y0093077D02*
X0198250Y0093077D01*
X0198250Y0096276D02*
X0311924Y0096276D01*
X0308726Y0099474D02*
X0198250Y0099474D01*
X0198250Y0102673D02*
X0305527Y0102673D01*
X0302329Y0105871D02*
X0198250Y0105871D01*
X0198250Y0109070D02*
X0299130Y0109070D01*
X0292733Y0115467D02*
X0271536Y0115467D01*
X0264786Y0115467D02*
X0209036Y0115467D01*
X0189450Y0115467D02*
X0161878Y0115467D01*
X0164750Y0112268D02*
X0189450Y0112268D01*
X0189450Y0109070D02*
X0165189Y0109070D01*
X0165189Y0105871D02*
X0189450Y0105871D01*
X0189450Y0102673D02*
X0165189Y0102673D01*
X0165189Y0099474D02*
X0189450Y0099474D01*
X0189450Y0096276D02*
X0165189Y0096276D01*
X0165189Y0093077D02*
X0189450Y0093077D01*
X0145977Y0109070D02*
X0127845Y0109070D01*
X0130211Y0105871D02*
X0143611Y0105871D01*
X0142550Y0102673D02*
X0130611Y0102673D01*
X0129166Y0099474D02*
X0139351Y0099474D01*
X0120377Y0109070D02*
X0075827Y0109070D01*
X0079026Y0105871D02*
X0118011Y0105871D01*
X0117611Y0102673D02*
X0116250Y0102673D01*
X0110202Y0096276D02*
X0035471Y0096276D01*
X0032272Y0093077D02*
X0113400Y0093077D01*
X0072978Y0099474D02*
X0038291Y0099474D01*
X0038693Y0102673D02*
X0069779Y0102673D01*
X0066581Y0105871D02*
X0038693Y0105871D01*
X0038693Y0109070D02*
X0063382Y0109070D01*
X0060184Y0112268D02*
X0038693Y0112268D01*
X0038693Y0115467D02*
X0056985Y0115467D01*
X0053787Y0118665D02*
X0038693Y0118665D01*
X0038693Y0121864D02*
X0050588Y0121864D01*
X0047390Y0125062D02*
X0038693Y0125062D01*
X0038693Y0128261D02*
X0044191Y0128261D01*
X0040993Y0131459D02*
X0038693Y0131459D01*
X0029893Y0131459D02*
X0009320Y0131459D01*
X0009320Y0134658D02*
X0029893Y0134658D01*
X0029893Y0137856D02*
X0009320Y0137856D01*
X0009320Y0141055D02*
X0027383Y0141055D01*
X0027115Y0141323D02*
X0028634Y0139804D01*
X0029893Y0139282D01*
X0029893Y0103143D01*
X0015427Y0088678D01*
X0013691Y0088678D01*
X0011251Y0087667D01*
X0009384Y0085799D01*
X0009320Y0085646D01*
X0009320Y0161253D01*
X0010670Y0160694D01*
X0012818Y0160694D01*
X0014803Y0161516D01*
X0016322Y0163035D01*
X0016744Y0164054D01*
X0017166Y0163035D01*
X0018685Y0161516D01*
X0020670Y0160694D01*
X0022818Y0160694D01*
X0024803Y0161516D01*
X0026322Y0163035D01*
X0026364Y0163137D01*
X0027115Y0161323D01*
X0028634Y0159804D01*
X0029653Y0159381D01*
X0028634Y0158959D01*
X0027115Y0157440D01*
X0026293Y0155456D01*
X0026293Y0153307D01*
X0027115Y0151323D01*
X0028634Y0149804D01*
X0029653Y0149381D01*
X0028634Y0148959D01*
X0027115Y0147440D01*
X0026293Y0145456D01*
X0026293Y0143307D01*
X0027115Y0141323D01*
X0026293Y0144253D02*
X0009320Y0144253D01*
X0009320Y0147452D02*
X0027126Y0147452D01*
X0034293Y0144381D02*
X0034293Y0101320D01*
X0015011Y0082039D01*
X0010264Y0086680D02*
X0009320Y0086680D01*
X0009320Y0089879D02*
X0016628Y0089879D01*
X0019827Y0093077D02*
X0009320Y0093077D01*
X0009320Y0096276D02*
X0023025Y0096276D01*
X0026224Y0099474D02*
X0009320Y0099474D01*
X0009320Y0102673D02*
X0029422Y0102673D01*
X0029893Y0105871D02*
X0009320Y0105871D01*
X0009320Y0109070D02*
X0013740Y0109070D01*
X0014743Y0108066D02*
X0019217Y0108066D01*
X0022380Y0111229D01*
X0022380Y0115703D01*
X0019217Y0118866D01*
X0014743Y0118866D01*
X0011580Y0115703D01*
X0011580Y0111229D01*
X0014743Y0108066D01*
X0020220Y0109070D02*
X0029893Y0109070D01*
X0029893Y0112268D02*
X0022380Y0112268D01*
X0022380Y0115467D02*
X0029893Y0115467D01*
X0029893Y0118665D02*
X0019418Y0118665D01*
X0014542Y0118665D02*
X0009320Y0118665D01*
X0009320Y0121864D02*
X0029893Y0121864D01*
X0029893Y0125062D02*
X0009320Y0125062D01*
X0009320Y0128261D02*
X0029893Y0128261D01*
X0050239Y0134658D02*
X0092661Y0134658D01*
X0093434Y0131459D02*
X0053438Y0131459D01*
X0056636Y0128261D02*
X0071608Y0128261D01*
X0070064Y0125062D02*
X0059835Y0125062D01*
X0063033Y0121864D02*
X0070444Y0121864D01*
X0066232Y0118665D02*
X0118213Y0118665D01*
X0117611Y0121864D02*
X0080485Y0121864D01*
X0129332Y0141055D02*
X0145311Y0141055D01*
X0145311Y0144253D02*
X0132976Y0144253D01*
X0136174Y0147452D02*
X0145311Y0147452D01*
X0145311Y0150650D02*
X0139373Y0150650D01*
X0142571Y0153849D02*
X0144561Y0153849D01*
X0155261Y0157788D02*
X0156261Y0158788D01*
X0156261Y0157988D01*
X0155661Y0157388D01*
X0155261Y0157788D01*
X0160661Y0160661D02*
X0160661Y0153761D01*
X0154111Y0147452D02*
X0198129Y0147452D01*
X0194930Y0144253D02*
X0154111Y0144253D01*
X0154111Y0141055D02*
X0191732Y0141055D01*
X0189463Y0137856D02*
X0154111Y0137856D01*
X0154111Y0134658D02*
X0189450Y0134658D01*
X0189450Y0131459D02*
X0154111Y0131459D01*
X0154111Y0128261D02*
X0189450Y0128261D01*
X0189450Y0125062D02*
X0155234Y0125062D01*
X0156211Y0121864D02*
X0189450Y0121864D01*
X0189450Y0118665D02*
X0158680Y0118665D01*
X0193850Y0136950D02*
X0210661Y0153761D01*
X0206473Y0158200D02*
X0205661Y0157388D01*
X0204849Y0158200D01*
X0206473Y0158200D01*
X0214849Y0158200D02*
X0216473Y0158200D01*
X0215661Y0157388D01*
X0214849Y0158200D01*
X0220661Y0153761D02*
X0220661Y0135011D01*
X0214085Y0134658D02*
X0208934Y0134658D01*
X0216261Y0137856D02*
X0200978Y0137856D01*
X0204177Y0141055D02*
X0216261Y0141055D01*
X0216261Y0144253D02*
X0207375Y0144253D01*
X0210574Y0147452D02*
X0216261Y0147452D01*
X0235061Y0147452D02*
X0236261Y0147452D01*
X0236261Y0144253D02*
X0235061Y0144253D01*
X0235061Y0141055D02*
X0236261Y0141055D01*
X0236261Y0137856D02*
X0235061Y0137856D01*
X0240661Y0135761D02*
X0240661Y0153761D01*
X0236473Y0158200D02*
X0235661Y0157388D01*
X0234849Y0158200D01*
X0236473Y0158200D01*
X0244849Y0158200D02*
X0246473Y0158200D01*
X0245661Y0157388D01*
X0244849Y0158200D01*
X0254849Y0158200D02*
X0256473Y0158200D01*
X0255661Y0157388D01*
X0254849Y0158200D01*
X0260748Y0147452D02*
X0245061Y0147452D01*
X0245061Y0144253D02*
X0263947Y0144253D01*
X0267145Y0141055D02*
X0245061Y0141055D01*
X0245061Y0137856D02*
X0270344Y0137856D01*
X0271434Y0134658D02*
X0273542Y0134658D01*
X0273761Y0131459D02*
X0276741Y0131459D01*
X0264888Y0134658D02*
X0249305Y0134658D01*
X0251656Y0131459D02*
X0262561Y0131459D01*
X0262561Y0128261D02*
X0251531Y0128261D01*
X0246411Y0130011D02*
X0240661Y0135761D01*
X0236356Y0134658D02*
X0235061Y0134658D01*
X0234677Y0131459D02*
X0238741Y0131459D01*
X0241291Y0128261D02*
X0232531Y0128261D01*
X0225661Y0157388D02*
X0226473Y0158200D01*
X0224849Y0158200D01*
X0225661Y0157388D01*
X0196473Y0158200D02*
X0195661Y0157388D01*
X0194849Y0158200D01*
X0196473Y0158200D01*
X0186473Y0158200D02*
X0185661Y0157388D01*
X0184849Y0158200D01*
X0186473Y0158200D01*
X0149317Y0173040D02*
X0149262Y0173040D01*
X0146119Y0169841D02*
X0146064Y0169841D01*
X0142920Y0166643D02*
X0142865Y0166643D01*
X0139722Y0163444D02*
X0139667Y0163444D01*
X0136523Y0160246D02*
X0136468Y0160246D01*
X0133325Y0157047D02*
X0133270Y0157047D01*
X0130126Y0153849D02*
X0130071Y0153849D01*
X0126928Y0150650D02*
X0126873Y0150650D01*
X0165061Y0179437D02*
X0166359Y0179437D01*
X0174963Y0179437D02*
X0176359Y0179437D01*
X0184963Y0179437D02*
X0186359Y0179437D01*
X0194963Y0179437D02*
X0196359Y0179437D01*
X0197446Y0189032D02*
X0193876Y0189032D01*
X0187446Y0189032D02*
X0183876Y0189032D01*
X0177446Y0189032D02*
X0173876Y0189032D01*
X0167446Y0189032D02*
X0163876Y0189032D01*
X0157446Y0189032D02*
X0153876Y0189032D01*
X0203876Y0189032D02*
X0206195Y0189032D01*
X0234963Y0179437D02*
X0236359Y0179437D01*
X0244963Y0179437D02*
X0246359Y0179437D01*
X0254963Y0179437D02*
X0256359Y0179437D01*
X0264963Y0179437D02*
X0266359Y0179437D01*
X0274963Y0179437D02*
X0276359Y0179437D01*
X0456015Y0201904D02*
X0457750Y0201904D01*
X0457750Y0198996D01*
X0456150Y0201768D01*
X0456015Y0201904D01*
X0456092Y0201826D02*
X0457750Y0201826D01*
X0058192Y0160246D02*
X0055750Y0160246D01*
X0055750Y0157047D02*
X0056952Y0157047D01*
X0056293Y0153849D02*
X0055750Y0153849D01*
X0054373Y0150650D02*
X0057787Y0150650D01*
X0046950Y0157047D02*
X0041634Y0157047D01*
X0040394Y0160246D02*
X0046950Y0160246D01*
X0045126Y0153849D02*
X0042293Y0153849D01*
X0041928Y0150650D02*
X0040798Y0150650D01*
X0027787Y0150650D02*
X0021801Y0150650D01*
X0022380Y0151229D02*
X0019217Y0148066D01*
X0014743Y0148066D01*
X0011580Y0151229D01*
X0011580Y0155703D01*
X0014743Y0158866D01*
X0019217Y0158866D01*
X0022380Y0155703D01*
X0022380Y0151229D01*
X0022380Y0153849D02*
X0026293Y0153849D01*
X0026952Y0157047D02*
X0021036Y0157047D01*
X0028192Y0160246D02*
X0009320Y0160246D01*
X0009320Y0157047D02*
X0012924Y0157047D01*
X0011580Y0153849D02*
X0009320Y0153849D01*
X0009320Y0150650D02*
X0012159Y0150650D01*
X0016491Y0163444D02*
X0016996Y0163444D01*
X0017854Y0169841D02*
X0015633Y0169841D01*
X0009320Y0173040D02*
X0026404Y0173040D01*
X0025633Y0169841D02*
X0028596Y0169841D01*
X0026617Y0176238D02*
X0009320Y0176238D01*
X0009320Y0179437D02*
X0029787Y0179437D01*
X0011580Y0115467D02*
X0009320Y0115467D01*
X0009320Y0112268D02*
X0011580Y0112268D01*
M02*
