%
M48
M72
T01C0.03200
T02C0.04000
T03C0.04331
T04C0.04400
T05C0.04724
T06C0.05118
T07C0.13000
%
T01
X160789Y48939
X225661Y46261
X245100Y46350
X245100Y56350
X225661Y56261
X272600Y56350
X272600Y46350
X225100Y26350
X225100Y16350
X324539Y18939
X324539Y8939
X160789Y88939
X205661Y120011
X205661Y130011
X227411Y130011
X246411Y130011
X268161Y130011
X268161Y120011
X270661Y153761
X260661Y153761
X250661Y153761
X240661Y153761
X230661Y153761
X220661Y153761
X210661Y153761
X200661Y153761
X190661Y153761
X180661Y153761
X170661Y153761
X160661Y153761
X150661Y153761
X150661Y183761
X160661Y183761
X170661Y183761
X180661Y183761
X190661Y183761
X200661Y183761
X210661Y183761
X220661Y183761
X230661Y183761
X240661Y183761
X250661Y183761
X260661Y183761
X270661Y183761
X280661Y183761
X280661Y153761
X75464Y164480
X64293Y164381
X64293Y154381
X64293Y144381
X34293Y144381
X16980Y153466
X34293Y154381
X34293Y164381
X21744Y166094
X11744Y166094
X34293Y174381
X64293Y174381
X75464Y124480
X16980Y113466
T02
X124111Y121411
X149711Y121411
X149711Y103611
X124111Y103611
X160100Y36350
X160100Y26350
X160100Y16350
X440317Y122885
X451498Y128358
X440317Y133791
X451498Y139263
X440317Y144696
X451498Y150130
X440317Y155602
X451498Y161035
X440317Y166507
X403161Y191261
X393161Y191261
X383161Y191261
X325661Y188761
X315661Y188761
X305661Y188761
X305661Y178761
X315661Y178761
X325661Y178761
T03
X370198Y141202
X370198Y131202
X350198Y126202
X370198Y121202
X350198Y116202
X350198Y106202
X370198Y101202
X370198Y91202
X350198Y86202
X350198Y76202
X370198Y71202
X370198Y81202
X350198Y96202
X370198Y111202
X350198Y136202
T04
X416911Y56261
X435789Y52689
X368939Y49411
X343761Y49539
X416911Y16261
X435789Y12689
X368939Y9411
X343761Y9539
X201350Y16350
X201350Y56350
X98761Y134539
X98761Y174539
X83161Y193761
X43161Y193761
T05
X387689Y20661
X401468Y20661
X308289Y16439
X294509Y16439
T06
X93752Y82039
X15011Y82039
T07
X101100Y26350
X445907Y95484
X445907Y193909
M30
