G75*
%MOIN*%
%OFA0B0*%
%FSLAX25Y25*%
%IPPOS*%
%LPD*%
%AMOC8*
5,1,8,0,0,1.08239X$1,22.5*
%
%ADD10C,0.00600*%
%ADD11C,0.00800*%
%ADD12C,0.00500*%
D10*
X0072994Y0100300D02*
X0077265Y0100300D01*
X0078332Y0101368D01*
X0078332Y0103503D01*
X0077265Y0104570D01*
X0075130Y0104570D01*
X0075130Y0102435D01*
X0072994Y0100300D02*
X0071927Y0101368D01*
X0071927Y0103503D01*
X0072994Y0104570D01*
X0071927Y0106745D02*
X0078332Y0111016D01*
X0071927Y0111016D01*
X0071927Y0113191D02*
X0071927Y0116394D01*
X0072994Y0117461D01*
X0077265Y0117461D01*
X0078332Y0116394D01*
X0078332Y0113191D01*
X0071927Y0113191D01*
X0081927Y0111016D02*
X0088332Y0106745D01*
X0091927Y0106745D02*
X0098332Y0111016D01*
X0101927Y0109948D02*
X0101927Y0107813D01*
X0102994Y0106745D01*
X0107265Y0106745D01*
X0108332Y0107813D01*
X0108332Y0109948D01*
X0107265Y0111016D01*
X0107265Y0113191D02*
X0102994Y0113191D01*
X0101927Y0114259D01*
X0101927Y0116394D01*
X0102994Y0117461D01*
X0107265Y0117461D02*
X0108332Y0116394D01*
X0108332Y0114259D01*
X0107265Y0113191D01*
X0102994Y0111016D02*
X0101927Y0109948D01*
X0098332Y0106745D02*
X0091927Y0111016D01*
X0088332Y0111016D02*
X0081927Y0106745D01*
X0081927Y0104570D02*
X0081927Y0100300D01*
X0081927Y0102435D02*
X0088332Y0102435D01*
X0091927Y0103503D02*
X0092994Y0104570D01*
X0095130Y0104570D01*
X0096197Y0103503D01*
X0096197Y0100300D01*
X0096197Y0102435D02*
X0098332Y0104570D01*
X0101927Y0104570D02*
X0106197Y0104570D01*
X0108332Y0102435D01*
X0106197Y0100300D01*
X0101927Y0100300D01*
X0098332Y0100300D02*
X0091927Y0100300D01*
X0091927Y0103503D01*
X0078332Y0106745D02*
X0071927Y0106745D01*
X0083927Y0160766D02*
X0083927Y0163969D01*
X0084994Y0165036D01*
X0087130Y0165036D01*
X0088197Y0163969D01*
X0088197Y0160766D01*
X0088197Y0162901D02*
X0090332Y0165036D01*
X0089265Y0167211D02*
X0090332Y0168279D01*
X0090332Y0170414D01*
X0089265Y0171482D01*
X0088197Y0171482D01*
X0087130Y0170414D01*
X0087130Y0168279D01*
X0086062Y0167211D01*
X0084994Y0167211D01*
X0083927Y0168279D01*
X0083927Y0170414D01*
X0084994Y0171482D01*
X0084994Y0173657D02*
X0083927Y0174724D01*
X0083927Y0176860D01*
X0084994Y0177927D01*
X0086062Y0177927D01*
X0090332Y0173657D01*
X0090332Y0177927D01*
X0089265Y0180102D02*
X0090332Y0181170D01*
X0090332Y0183305D01*
X0089265Y0184373D01*
X0088197Y0184373D01*
X0087130Y0183305D01*
X0087130Y0182238D01*
X0087130Y0183305D02*
X0086062Y0184373D01*
X0084994Y0184373D01*
X0083927Y0183305D01*
X0083927Y0181170D01*
X0084994Y0180102D01*
X0084994Y0186548D02*
X0083927Y0187615D01*
X0083927Y0189751D01*
X0084994Y0190818D01*
X0086062Y0190818D01*
X0087130Y0189751D01*
X0088197Y0190818D01*
X0089265Y0190818D01*
X0090332Y0189751D01*
X0090332Y0187615D01*
X0089265Y0186548D01*
X0087130Y0188683D02*
X0087130Y0189751D01*
X0093927Y0190818D02*
X0093927Y0186548D01*
X0100332Y0186548D01*
X0100332Y0190818D01*
X0100332Y0192993D02*
X0093927Y0192993D01*
X0100332Y0192993D02*
X0100332Y0197264D01*
X0090332Y0199439D02*
X0090332Y0201574D01*
X0090332Y0200506D02*
X0083927Y0200506D01*
X0083927Y0199439D02*
X0083927Y0201574D01*
X0083927Y0203736D02*
X0090332Y0208006D01*
X0083927Y0208006D01*
X0083927Y0210181D02*
X0083927Y0214452D01*
X0083927Y0212316D02*
X0090332Y0212316D01*
X0093927Y0214465D02*
X0096062Y0216600D01*
X0100332Y0216600D01*
X0100332Y0218775D02*
X0093927Y0218775D01*
X0093927Y0221978D01*
X0094994Y0223046D01*
X0097130Y0223046D01*
X0098197Y0221978D01*
X0098197Y0218775D01*
X0098197Y0220911D02*
X0100332Y0223046D01*
X0100332Y0227356D02*
X0093927Y0227356D01*
X0093927Y0225221D02*
X0093927Y0229491D01*
X0093927Y0231666D02*
X0093927Y0233802D01*
X0093927Y0232734D02*
X0100332Y0232734D01*
X0100332Y0231666D02*
X0100332Y0233802D01*
X0100332Y0235963D02*
X0093927Y0235963D01*
X0100332Y0240234D01*
X0093927Y0240234D01*
X0093927Y0242409D02*
X0100332Y0242409D01*
X0100332Y0246679D01*
X0100332Y0248854D02*
X0100332Y0253125D01*
X0099265Y0248854D02*
X0094994Y0253125D01*
X0093927Y0253125D01*
X0093927Y0248854D01*
X0093927Y0246679D02*
X0093927Y0242409D01*
X0097130Y0242409D02*
X0097130Y0244544D01*
X0099265Y0248854D02*
X0100332Y0248854D01*
X0090332Y0248854D02*
X0090332Y0253125D01*
X0087130Y0250989D02*
X0087130Y0248854D01*
X0089265Y0246679D02*
X0090332Y0245612D01*
X0090332Y0243476D01*
X0089265Y0242409D01*
X0084994Y0242409D01*
X0083927Y0243476D01*
X0083927Y0245612D01*
X0084994Y0246679D01*
X0083927Y0248854D02*
X0090332Y0248854D01*
X0083927Y0248854D02*
X0083927Y0253125D01*
X0086062Y0240234D02*
X0090332Y0240234D01*
X0087130Y0240234D02*
X0087130Y0235963D01*
X0086062Y0235963D02*
X0083927Y0238098D01*
X0086062Y0240234D01*
X0086062Y0235963D02*
X0090332Y0235963D01*
X0087130Y0231653D02*
X0087130Y0229518D01*
X0087130Y0227343D02*
X0088197Y0226275D01*
X0088197Y0223072D01*
X0090332Y0223072D02*
X0083927Y0223072D01*
X0083927Y0226275D01*
X0084994Y0227343D01*
X0087130Y0227343D01*
X0088197Y0225207D02*
X0090332Y0227343D01*
X0090332Y0229518D02*
X0083927Y0229518D01*
X0083927Y0233788D01*
X0083927Y0220897D02*
X0083927Y0216627D01*
X0090332Y0216627D01*
X0090332Y0220897D01*
X0087130Y0218762D02*
X0087130Y0216627D01*
X0093927Y0214465D02*
X0096062Y0212330D01*
X0100332Y0212330D01*
X0100332Y0210155D02*
X0093927Y0210155D01*
X0096062Y0208020D01*
X0093927Y0205884D01*
X0100332Y0205884D01*
X0097130Y0212330D02*
X0097130Y0216600D01*
X0090332Y0203736D02*
X0083927Y0203736D01*
X0097130Y0188683D02*
X0097130Y0186548D01*
X0100332Y0184386D02*
X0100332Y0182251D01*
X0100332Y0183318D02*
X0093927Y0183318D01*
X0093927Y0182251D02*
X0093927Y0184386D01*
X0093927Y0180076D02*
X0100332Y0180076D01*
X0093927Y0175805D01*
X0100332Y0175805D01*
X0100332Y0173630D02*
X0096062Y0173630D01*
X0093927Y0171495D01*
X0096062Y0169360D01*
X0100332Y0169360D01*
X0099265Y0167185D02*
X0094994Y0167185D01*
X0093927Y0166117D01*
X0093927Y0162914D01*
X0100332Y0162914D01*
X0100332Y0166117D01*
X0099265Y0167185D01*
X0097130Y0169360D02*
X0097130Y0173630D01*
X0090332Y0160766D02*
X0083927Y0160766D01*
X0117132Y0170000D02*
X0140132Y0170000D01*
X0140132Y0270000D01*
X0132632Y0270000D01*
X0132630Y0269874D01*
X0132624Y0269749D01*
X0132614Y0269624D01*
X0132600Y0269499D01*
X0132583Y0269374D01*
X0132561Y0269250D01*
X0132536Y0269127D01*
X0132506Y0269005D01*
X0132473Y0268884D01*
X0132436Y0268764D01*
X0132396Y0268645D01*
X0132351Y0268528D01*
X0132303Y0268411D01*
X0132251Y0268297D01*
X0132196Y0268184D01*
X0132137Y0268073D01*
X0132075Y0267964D01*
X0132009Y0267857D01*
X0131940Y0267752D01*
X0131868Y0267649D01*
X0131793Y0267548D01*
X0131714Y0267450D01*
X0131632Y0267355D01*
X0131548Y0267262D01*
X0131460Y0267172D01*
X0131370Y0267084D01*
X0131277Y0267000D01*
X0131182Y0266918D01*
X0131084Y0266839D01*
X0130983Y0266764D01*
X0130880Y0266692D01*
X0130775Y0266623D01*
X0130668Y0266557D01*
X0130559Y0266495D01*
X0130448Y0266436D01*
X0130335Y0266381D01*
X0130221Y0266329D01*
X0130104Y0266281D01*
X0129987Y0266236D01*
X0129868Y0266196D01*
X0129748Y0266159D01*
X0129627Y0266126D01*
X0129505Y0266096D01*
X0129382Y0266071D01*
X0129258Y0266049D01*
X0129133Y0266032D01*
X0129008Y0266018D01*
X0128883Y0266008D01*
X0128758Y0266002D01*
X0128632Y0266000D01*
X0128506Y0266002D01*
X0128381Y0266008D01*
X0128256Y0266018D01*
X0128131Y0266032D01*
X0128006Y0266049D01*
X0127882Y0266071D01*
X0127759Y0266096D01*
X0127637Y0266126D01*
X0127516Y0266159D01*
X0127396Y0266196D01*
X0127277Y0266236D01*
X0127160Y0266281D01*
X0127043Y0266329D01*
X0126929Y0266381D01*
X0126816Y0266436D01*
X0126705Y0266495D01*
X0126596Y0266557D01*
X0126489Y0266623D01*
X0126384Y0266692D01*
X0126281Y0266764D01*
X0126180Y0266839D01*
X0126082Y0266918D01*
X0125987Y0267000D01*
X0125894Y0267084D01*
X0125804Y0267172D01*
X0125716Y0267262D01*
X0125632Y0267355D01*
X0125550Y0267450D01*
X0125471Y0267548D01*
X0125396Y0267649D01*
X0125324Y0267752D01*
X0125255Y0267857D01*
X0125189Y0267964D01*
X0125127Y0268073D01*
X0125068Y0268184D01*
X0125013Y0268297D01*
X0124961Y0268411D01*
X0124913Y0268528D01*
X0124868Y0268645D01*
X0124828Y0268764D01*
X0124791Y0268884D01*
X0124758Y0269005D01*
X0124728Y0269127D01*
X0124703Y0269250D01*
X0124681Y0269374D01*
X0124664Y0269499D01*
X0124650Y0269624D01*
X0124640Y0269749D01*
X0124634Y0269874D01*
X0124632Y0270000D01*
X0117132Y0270000D01*
X0117132Y0170000D01*
X0045332Y0170845D02*
X0045332Y0174048D01*
X0044265Y0175115D01*
X0039994Y0175115D01*
X0038927Y0174048D01*
X0038927Y0170845D01*
X0045332Y0170845D01*
X0045332Y0177290D02*
X0038927Y0177290D01*
X0038927Y0180493D01*
X0039994Y0181561D01*
X0041062Y0181561D01*
X0042130Y0180493D01*
X0042130Y0177290D01*
X0045332Y0177290D02*
X0045332Y0180493D01*
X0044265Y0181561D01*
X0043197Y0181561D01*
X0042130Y0180493D01*
X0041062Y0183736D02*
X0042130Y0184803D01*
X0042130Y0188006D01*
X0044265Y0188006D02*
X0039994Y0188006D01*
X0038927Y0186939D01*
X0038927Y0184803D01*
X0039994Y0183736D01*
X0041062Y0183736D01*
X0044265Y0183736D02*
X0045332Y0184803D01*
X0045332Y0186939D01*
X0044265Y0188006D01*
X0045332Y0196627D02*
X0038927Y0196627D01*
X0038927Y0200897D01*
X0038927Y0203072D02*
X0045332Y0203072D01*
X0045332Y0207343D01*
X0045332Y0209518D02*
X0038927Y0209518D01*
X0041062Y0211653D01*
X0038927Y0213788D01*
X0045332Y0213788D01*
X0045332Y0215963D02*
X0041062Y0215963D01*
X0038927Y0218099D01*
X0041062Y0220234D01*
X0045332Y0220234D01*
X0045332Y0222409D02*
X0045332Y0226679D01*
X0045332Y0228854D02*
X0038927Y0228854D01*
X0038927Y0233125D01*
X0042130Y0230990D02*
X0042130Y0228854D01*
X0045332Y0228854D02*
X0045332Y0233125D01*
X0045332Y0222409D02*
X0038927Y0222409D01*
X0042130Y0220234D02*
X0042130Y0215963D01*
X0038927Y0207343D02*
X0038927Y0203072D01*
X0042130Y0203072D02*
X0042130Y0205208D01*
X0042130Y0198762D02*
X0042130Y0196627D01*
D11*
X0053632Y0149370D02*
X0074656Y0149370D01*
X0074656Y0270630D01*
X0053632Y0270630D01*
D12*
X0068632Y0142000D02*
X0108632Y0142000D01*
X0108632Y0120000D01*
X0103632Y0120000D01*
X0103632Y0125000D01*
X0073632Y0125000D01*
X0073632Y0120000D01*
X0068632Y0120000D01*
X0068632Y0142000D01*
X0073632Y0120000D02*
X0103632Y0120000D01*
M02*
